# Alias OBJ Model File
# Exported from SketchUp, (c) 2000-2012 Trimble Navigation Limited
# File units = meters

mtllib Vitre.mtl

g Mesh1 VitreBris_e_1 Model

usemtl FrontColor
v -2.5 0 -2.00834
vt 0 177.494
vn 0 -1 -0
v -2.5 0 -2.5
vt 0 196.85
v -2.31493 0 -2.5
vt -7.28641 196.85
f 1/1/1 2/2/1 3/3/1

vt -196.85 0
vn -1 0 -0
vt -177.494 0
v -2.5 0.1 -2.00834
vt -177.494 3.93701
v -2.5 0.1 -2.5
vt -196.85 3.93701
f 2/4/2 1/5/2 4/6/2 5/7/2 

vt 166.114 0
vn 0.93589 0 0.352293
vt 186.797 0
v -2.31493 0.1 -2.5
vt 186.797 3.93701
vt 166.114 3.93701
f 1/8/3 3/9/3 6/10/3 4/11/3 

vt -7.28641 0
vn 0 0 -1
vt 0 0
vt 0 3.93701
vt -7.28641 3.93701
f 3/12/4 2/13/4 5/14/4 6/15/4 

vn 0 1 -0
vt 7.28641 196.85
f 5/2/5 4/1/5 6/16/5

g Mesh2 VitreBris_e_1 Model

v -2.04247 -9.34017e-17 -0.278535
vt -18.0128 109.391
vn -4.85017e-16 -1 -2.2261e-17
v -1.83245 -1.99985e-16 -0.0666806
vt -26.2817 101.05
v -1.98111 -1.346e-16 0.235084
vt -20.4289 89.1699
v -1.75405 -2.52244e-16 0.572753
vt -29.3682 75.8758
v -1.62422 -3.19511e-16 0.76583
vt -34.4796 68.2744
v -1.77566 -2.59135e-16 1.3532
vt -28.5173 45.1496
v -2.05873 -1.19046e-16 1.22761
vt -17.3728 50.0941
v -2.49 8.33779e-17 1.53081
vt -0.393701 38.157
v -2.49 1.25287e-16 -0.351797
vt -0.393701 112.275
v -2.25208 1.29678e-17 -0.489964
vt -9.76059 117.715
f 7/17/6 8/18/6 9/19/6 10/20/6 11/21/6 12/22/6 13/23/6 14/24/6 15/25/6 16/26/6 

vt 53.2587 2.16524e-14
vn 0.710161 -3.28767e-16 -0.70404
vt 65.0035 2.58486e-14
v -2.04247 0.1 -0.278535
vt 65.0035 3.93701
v -1.83245 0.1 -0.0666806
vt 53.2587 3.93701
f 8/27/7 7/28/7 17/29/7 18/30/7 

vt 76.7248 3.00364e-14
v -2.25208 0.1 -0.489964
vt 76.7248 3.93701
f 7/28/7 16/31/7 19/32/7 17/29/7 

vt -67.5559 -2.49551e-14
vn -0.50219 2.62821e-16 -0.864757
vt -56.7241 -2.05331e-14
v -2.49 0.1 -0.351797
vt -56.7241 3.93701
vt -67.5559 3.93701
f 16/33/8 15/34/8 20/35/8 19/36/8 

vt -112.275 5.1235e-15
vn -1 4.85017e-16 1.0797e-32
vt -38.157 3.47355e-15
v -2.49 0.1 1.53081
vt -38.157 3.93701
vt -112.275 3.93701
f 15/37/9 14/38/9 21/39/9 20/40/9 

vt 22.2674 -5.92587e-15
vn 0.575131 -2.97159e-16 0.818061
vt 43.0227 -1.38953e-14
v -2.05873 0.1 1.22761
vt 43.0227 3.93701
vt 22.2674 3.93701
f 14/41/10 13/42/10 22/43/10 21/44/10 

vt -4.43554 4.63063e-15
vn -0.405549 1.7635e-16 0.914073
vt 7.75658 -8.84704e-16
v -1.77566 0.1 1.3532
vt 7.75658 3.93701
vt -4.43554 3.93701
f 13/45/11 12/46/11 23/47/11 22/48/11 

vt 50.8395 -2.43621e-15
vn 0.968332 -4.75215e-16 0.249665
vt 74.7207 -4.81323e-15
v -1.62422 0.1 0.76583
vt 74.7207 3.93701
vt 50.8395 3.93701
f 12/49/12 11/50/12 24/51/12 23/52/12 

vt 37.4168 1.34419e-14
vn 0.829837 -3.90063e-16 -0.558005
vt 46.577 1.60902e-14
v -1.75405 0.1 0.572753
vt 46.577 3.93701
vt 37.4168 3.93701
f 11/53/13 10/54/13 25/55/13 24/56/13 

vt 62.5971 2.07219e-14
v -1.98111 0.1 0.235084
vt 62.5971 3.93701
f 10/54/13 9/57/13 26/58/13 25/55/13 

vt 89.0182 -1.46783e-14
vn 0.897054 -4.44924e-16 0.44192
vt 102.262 -1.72525e-14
vt 102.262 3.93701
vt 89.0182 3.93701
f 9/59/14 8/60/14 18/61/14 26/62/14 

vt 26.2817 101.05
vn 4.85017e-16 1 2.2261e-17
vt 18.0128 109.391
vt 9.76059 117.715
vt 0.393701 112.275
vt 0.393701 38.157
vt 17.3728 50.0941
vt 28.5173 45.1496
vt 34.4796 68.2744
vt 29.3682 75.8758
vt 20.4289 89.1699
f 18/63/15 17/64/15 19/65/15 20/66/15 21/67/15 22/68/15 23/69/15 24/70/15 25/71/15 26/72/15 

g Mesh3 VitreBris_e_1 Model

v -0.740677 0 1.99775
vt -69.2647 19.7736
v -0.558836 0 2.49
vt -76.4238 0.393701
v -2.2081 0 2.49
vt -11.4922 0.393701
v -2.26268 0 2.27279
vt -9.34315 8.94539
v -2.49 0 2.13891
vt -0.393701 14.216
v -2.49 0 1.55526
vt -0.393701 37.1945
v -2.05649 0 1.25048
vt -17.461 49.1935
v -1.77298 0 1.37627
vt -28.6229 44.2413
v -1.4869 0 1.50319
vt -39.8857 39.2443
v -1.2323 0 1.87784
vt -49.9095 24.4946
v -0.874738 0 1.63484
vt -63.9867 34.0614
f 27/73/1 28/74/1 29/75/1 30/76/1 31/77/1 32/78/1 33/79/1 34/80/1 35/81/1 36/82/1 37/83/1 

vt -26.1131 0
vn 0.938042 0 -0.34652
vt -5.45312 0
v -0.740677 0.1 1.99775
vt -5.45312 3.93701
v -0.558836 0.1 2.49
vt -26.1131 3.93701
f 28/84/16 27/85/16 38/86/16 39/87/16 

vt 9.77831 0
v -0.874738 0.1 1.63484
vt 9.77831 3.93701
f 27/85/16 37/88/16 40/89/16 38/86/16 

vt -72.0675 0
vn -0.562078 0 -0.827084
vt -55.0472 0
v -1.2323 0.1 1.87784
vt -55.0472 3.93701
vt -72.0675 3.93701
f 37/90/17 36/91/17 41/92/17 40/93/17 

vt -7.79393 0
vn 0.827084 0 -0.562078
vt 10.0395 0
v -1.4869 0.1 1.50319
vt 10.0395 3.93701
vt -7.79393 3.93701
f 36/94/18 35/95/18 42/96/18 41/97/18 

vt -20.543 0
vn 0.405549 0 -0.914073
vt -8.22138 0
v -1.77298 0.1 1.37627
vt -8.22138 3.93701
vt -20.543 3.93701
f 35/98/19 34/99/19 43/100/19 42/101/19 

vt 3.98974 0
v -2.05649 0.1 1.25048
vt 3.98974 3.93701
f 34/99/19 33/102/19 44/103/19 43/100/19 

vt -42.5769 0
vn -0.575131 0 -0.818061
vt -21.7138 0
v -2.49 0.1 1.55526
vt -21.7138 3.93701
vt -42.5769 3.93701
f 33/104/20 32/105/20 45/106/20 44/107/20 

vt -37.1945 0
vt -14.216 0
v -2.49 0.1 2.13891
vt -14.216 3.93701
vt -37.1945 3.93701
f 32/108/2 31/109/2 46/110/2 45/111/2 

vt -6.87484 0
vn -0.507463 0 0.861673
vt 3.51128 0
v -2.26268 0.1 2.27279
vt 3.51128 3.93701
vt -6.87484 3.93701
f 31/112/21 30/113/21 47/114/21 46/115/21 

vt -6.39846 0
vn -0.969844 0 0.243726
vt 2.41913 0
v -2.2081 0.1 2.49
vt 2.41913 3.93701
vt -6.39846 3.93701
f 30/116/22 29/117/22 48/118/22 47/119/22 

vt 11.4922 0
vn 0 0 1
vt 76.4238 0
vt 76.4238 3.93701
vt 11.4922 3.93701
f 29/120/23 28/121/23 39/122/23 48/123/23 

vt 76.4238 0.393701
vt 69.2647 19.7736
vt 63.9867 34.0614
vt 49.9095 24.4946
vt 39.8857 39.2443
vt 28.6229 44.2413
vt 17.461 49.1935
vt 0.393701 37.1945
vt 0.393701 14.216
vt 9.34315 8.94539
vt 11.4922 0.393701
f 39/124/5 38/125/5 40/126/5 41/127/5 42/128/5 43/129/5 44/130/5 45/131/5 46/132/5 47/133/5 48/134/5 

g Mesh4 VitreBris_e_1 Model

v -2.49 0 2.16213
vt -0.393701 13.3022
v -2.28004 0 2.28578
vt -8.65977 8.43405
v -2.22872 0 2.49
vt -10.6803 0.393701
v -2.49 0 2.49
vt -0.393701 0.393701
f 49/135/1 50/136/1 51/137/1 52/138/1 

vt -3.18192 0
vn 0.507463 0 -0.861673
vt 6.41112 0
v -2.49 0.1 2.16213
vt 6.41112 3.93701
v -2.28004 0.1 2.28578
vt -3.18192 3.93701
f 50/139/24 49/140/24 53/141/24 54/142/24 

vt -13.3022 0
vt -0.393701 0
v -2.49 0.1 2.49
vt -0.393701 3.93701
vt -13.3022 3.93701
f 49/143/2 52/144/2 55/145/2 53/146/2 

vt 0.393701 0
vt 10.6803 0
v -2.22872 0.1 2.49
vt 10.6803 3.93701
vt 0.393701 3.93701
f 52/147/23 51/148/23 56/149/23 55/150/23 

vt -2.22125 0
vn 0.969844 0 -0.243726
vt 6.0691 0
vt 6.0691 3.93701
vt -2.22125 3.93701
f 51/151/25 50/152/25 54/153/25 56/154/25 

vt 8.65977 8.43405
vt 0.393701 13.3022
vt 0.393701 0.393701
vt 10.6803 0.393701
f 54/155/5 53/156/5 55/157/5 56/158/5 

g Mesh5 VitreBris_e_1 Model

v -1.23387 0.1 -0.652893
vt 49.8477 124.13
vn 5.21402e-16 1 -2.41027e-16
v -1.93131 0.1 -0.576102
vt 22.3893 121.106
v -2.02399 0.1 -0.288297
vt 18.7406 109.775
v -1.8082 0.1 -0.0706344
vt 27.2361 101.206
v -1.95805 0.1 0.233534
vt 21.3367 89.2309
v -1.74169 0.1 0.555295
vt 29.8549 76.5632
v -1.22938 0.1 0.385731
vt 50.0243 83.2389
v -1.09215 0.1 0.340309
vt 55.4272 85.0272
v -1.23831 0.1 0.0565653
vt 49.6728 96.1982
v -0.891852 0.1 -0.323768
vt 63.3129 111.172
v -1.01596 0.1 -0.558838
vt 58.4269 120.427
v -1.1359 0.1 -0.786017
vt 53.7049 129.371
f 57/159/26 58/160/26 59/161/26 60/162/26 61/163/26 62/164/26 63/165/26 64/166/26 65/167/26 66/168/26 67/169/26 68/170/26 

vt -35.5089 3.93701
vn -0.109442 -1.82516e-16 -0.993993
vt -63.1333 3.93701
v -1.23387 -0.0023113 -0.652893
vt -63.1333 -0.0909962
v -1.93131 -0.0023113 -0.576102
vt -35.5089 -0.0909962
f 58/171/27 57/172/27 69/173/27 70/174/27 

vt -129.521 3.93701
vn -0.805404 2.77076e-16 -0.592727
vt -136.028 3.93701
v -1.1359 -0.0023113 -0.786017
vt -136.028 -0.0909962
vt -129.521 -0.0909962
f 57/175/28 68/176/28 71/177/28 69/178/28 

vt 89.3317 3.93701
vn 0.884322 -5.73618e-16 -0.466878
vt 79.2177 3.93701
v -1.01596 -0.0023113 -0.558838
vt 79.2177 -0.0909962
vt 89.3317 -0.0909962
f 68/179/29 67/180/29 72/181/29 71/182/29 

vt 68.7524 3.93701
v -0.891852 -0.0023113 -0.323768
vt 68.7524 -0.0909962
f 67/180/29 66/183/29 73/184/29 72/181/29 

vt 124.821 3.93701
vn 0.73926 -2.23139e-16 0.67342
vt 104.566 3.93701
v -1.23831 -0.0023113 0.0565653
vt 104.566 -0.0909962
vt 124.821 -0.0909962
f 66/185/30 65/186/30 74/187/30 73/188/30 

vt 62.772 3.93701
vn 0.888986 -5.73894e-16 -0.457935
vt 50.2059 3.93701
v -1.09215 -0.0023113 0.340309
vt 50.2059 -0.0909962
vt 62.772 -0.0909962
f 65/189/31 64/190/31 75/191/31 74/192/31 

vt 79.337 3.93701
vn 0.314219 6.49847e-17 0.94935
vt 73.6459 3.93701
v -1.22938 -0.0023113 0.385731
vt 73.6459 -0.0909962
vt 79.337 -0.0909962
f 64/193/32 63/194/32 76/195/32 75/196/32 

vt 52.4004 3.93701
v -1.74169 -0.0023113 0.555295
vt 52.4004 -0.0909962
f 63/194/32 62/197/32 77/198/32 76/195/32 

vt -46.8758 3.93701
vn -0.829837 5.67173e-16 0.558005
vt -62.1411 3.93701
v -1.95805 -0.0023113 0.233534
vt -62.1411 -0.0909962
vt -46.8758 -0.0909962
f 62/199/33 61/200/33 78/201/33 77/202/33 

vt -89.4741 3.93701
vn -0.897054 3.61211e-16 -0.44192
vt -102.824 3.93701
v -1.8082 -0.0023113 -0.0706344
vt -102.824 -0.0909962
vt -89.4741 -0.0909962
f 61/203/34 60/204/34 79/205/34 78/206/34 

vt -52.6973 3.93701
vn -0.710161 5.39972e-16 0.70404
vt -64.7642 3.93701
v -2.02399 -0.0023113 -0.288297
vt -64.7642 -0.0909962
vt -52.6973 -0.0909962
f 60/207/35 59/208/35 80/209/35 79/210/35 

vt -110.236 3.93701
vn -0.951865 4.22426e-16 -0.306517
vt -122.14 3.93701
vt -122.14 -0.0909962
vt -110.236 -0.0909962
f 59/211/36 58/212/36 70/213/36 80/214/36 

vt -22.3893 121.106
vn -5.21402e-16 -1 2.41027e-16
vt -49.8477 124.13
vt -53.7049 129.371
vt -58.4269 120.427
vt -63.3129 111.172
vt -49.6728 96.1982
vt -55.4272 85.0272
vt -50.0243 83.2389
vt -29.8549 76.5632
vt -21.3367 89.2309
vt -27.2361 101.206
vt -18.7406 109.775
f 70/215/37 69/216/37 71/217/37 72/218/37 73/219/37 74/220/37 75/221/37 76/222/37 77/223/37 78/224/37 79/225/37 80/226/37 

g Mesh6 VitreBris_e_1 Model

v -1.21062 -2.40621e-16 0.400587
vt -50.7631 82.654
vn 5.31102e-17 -1 1.95715e-16
v -1.06366 -2.42335e-16 0.351946
vt -56.5489 84.5691
v -1.21417 -3.07514e-16 0.0597605
vt -50.6233 96.0724
v -0.867608 -3.63566e-16 -0.320684
vt -64.2674 111.051
v -0.991893 -4.16241e-16 -0.556094
vt -59.3743 120.319
v -0.566761 -4.08692e-16 -0.632893
vt -76.1118 123.342
v -0.419158 -3.64421e-16 -0.446742
vt -81.9229 116.013
v -0.268575 -3.19255e-16 -0.256832
vt -87.8514 108.537
v -0.0934724 -2.35892e-16 0.121596
vt -94.7452 93.638
v -0.00715611 -1.94798e-16 0.308141
vt -98.1435 86.2937
v -0.341488 -8.29676e-17 0.97026
vt -84.9808 60.226
v -0.643378 -1.53258e-16 0.693038
vt -73.0953 71.1403
v -0.899957 -1.33276e-16 0.86476
vt -62.9938 64.3795
f 81/227/38 82/228/38 83/229/38 84/230/38 85/231/38 86/232/38 87/233/38 88/234/38 89/235/38 90/236/38 91/237/38 92/238/38 93/239/38 

vt -80.258 3.11829e-15
vn -0.314219 -2.0249e-16 -0.94935
vt -74.1634 3.1858e-15
v -1.21062 0.1 0.400587
vt -74.1634 3.93701
v -1.06366 0.1 0.351946
vt -80.258 3.93701
f 82/240/39 81/241/39 94/242/39 95/243/39 

vt -40.4549 -3.76764e-15
vn -0.831047 6.47197e-17 0.556201
vt -18.4652 4.58529e-16
v -0.899957 0.1 0.86476
vt -18.4652 3.93701
vt -40.4549 3.93701
f 81/244/40 93/245/40 96/246/40 94/247/40 

vt 88.1588 -1.69829e-15
vn 0.556201 1.92188e-16 0.831047
vt 100.314 -2.48497e-15
v -0.643378 0.1 0.693038
vt 100.314 3.93701
vt 88.1588 3.93701
f 93/248/41 92/249/41 97/250/41 96/251/41 

vt 5.72167 4.98856e-15
vn -0.676373 1.08233e-16 0.736559
vt 21.8581 7.75588e-15
v -0.341488 0.1 0.97026
vt 21.8581 3.93701
vt 5.72167 3.93701
f 92/252/42 91/253/42 98/254/42 97/255/42 

vt 92.0652 -9.87308e-15
vn 0.892656 1.35625e-16 0.450739
vt 121.268 -1.42758e-14
v -0.00715611 0.1 0.308141
vt 121.268 3.93701
vt 92.0652 3.93701
f 91/256/43 90/257/43 99/258/43 98/259/43 

vt 37.1024 -3.41035e-15
vn 0.907554 -3.3987e-17 -0.419935
vt 45.1948 -5.02822e-15
v -0.0934724 0.1 0.121596
vt 45.1948 3.93701
vt 37.1024 3.93701
f 90/260/44 89/261/44 100/262/44 99/263/44 

vt 61.6111 -8.31024e-15
v -0.268575 0.1 -0.256832
vt 61.6111 3.93701
f 89/261/44 88/264/44 101/265/44 100/262/44 

vt 30.4632 -1.66959e-15
vn 0.783568 -7.99834e-17 -0.621307
vt 40.0051 -3.44777e-15
v -0.419158 0.1 -0.446742
vt 40.0051 3.93701
vt 30.4632 3.93701
f 88/266/45 87/267/45 102/268/45 101/269/45 

vt 49.3582 -5.19075e-15
v -0.566761 0.1 -0.632893
vt 49.3582 3.93701
f 87/267/45 86/270/45 103/271/45 102/268/45 

vt -96.8258 5.6991e-15
vn -0.177768 -2.02039e-16 -0.984072
vt -79.8175 5.40192e-15
v -0.991893 0.1 -0.556094
vt -79.8175 3.93701
vt -96.8258 3.93701
f 86/272/46 85/273/46 104/274/46 103/275/46 

vt -78.6799 -1.15611e-14
vn -0.884322 4.44084e-17 0.466878
vt -68.1993 -9.48733e-15
v -0.867608 0.1 -0.320684
vt -68.1993 3.93701
vt -78.6799 3.93701
f 85/276/47 84/277/47 105/278/47 104/279/47 

vt -125.374 -9.64825e-15
vn -0.73926 -1.7106e-16 -0.67342
vt -105.113 -7.44146e-15
v -1.21417 0.1 0.0597605
vt -105.113 3.93701
vt -125.374 3.93701
f 84/280/48 83/281/48 106/282/48 105/283/48 

vt -62.2248 -8.3324e-15
vn -0.888986 4.24104e-17 0.457935
vt -49.285 -5.76631e-15
vt -49.285 3.93701
vt -62.2248 3.93701
f 83/284/49 82/285/49 95/286/49 106/287/49 

vt 56.5489 84.5691
vn -5.31102e-17 1 -1.95715e-16
vt 50.7631 82.654
vt 62.9938 64.3795
vt 73.0953 71.1403
vt 84.9808 60.226
vt 98.1435 86.2937
vt 94.7452 93.638
vt 87.8514 108.537
vt 81.9229 116.013
vt 76.1118 123.342
vt 59.3743 120.319
vt 64.2674 111.051
vt 50.6233 96.0724
f 95/288/50 94/289/50 96/290/50 97/291/50 98/292/50 99/293/50 100/294/50 101/295/50 102/296/50 103/297/50 104/298/50 105/299/50 106/300/50 

g Mesh7 VitreBris_e_1 Model

v -0.537515 2.02029e-17 2.49
vt -77.2632 0.393701
vn 4.00761e-17 -1 -1.91294e-16
v -0.720311 1.07536e-16 1.99516
vt -70.0665 19.8754
v -0.332115 2.54718e-16 1.30709
vt -85.3498 46.9649
v -0.209238 2.44797e-16 1.3847
vt -90.1875 43.9096
v 0.16313 2.14732e-16 1.61987
vt -104.848 34.6507
v 0.295679 1.62013e-16 1.92323
vt -110.066 22.7074
v 0.566196 2.21894e-16 1.66688
vt -120.716 32.8
v 0.661921 1.87635e-16 1.86602
vt -124.485 24.9597
v 0.833134 1.2636e-16 2.22221
vt -131.226 10.9367
v 0.961857 8.02918e-17 2.49
vt -136.294 0.393701
f 107/301/51 108/302/51 109/303/51 110/304/51 111/305/51 112/306/51 113/307/51 114/308/51 115/309/51 116/310/51 

vt 5.63547 -3.30931e-15
vn -0.938042 -1.0388e-16 0.34652
vt 26.404 -6.74764e-15
v -0.537515 0.1 2.49
vt 26.404 3.93701
v -0.720311 0.1 1.99516
vt 5.63547 3.93701
f 108/311/52 107/312/52 117/313/52 118/314/52 

vt 77.2632 7.20076e-16
vn 7.66632e-33 -1.91294e-16 1
vt 136.294 3.08578e-15
v 0.961857 0.1 2.49
vt 136.294 3.93701
vt 77.2632 3.93701
f 107/315/53 116/316/53 119/317/53 117/318/53 

vt -58.6919 -1.14764e-14
vn 0.901282 1.18995e-16 -0.433232
vt -46.9941 -9.66267e-15
v 0.833134 0.1 2.22221
vt -46.9941 3.93701
vt -58.6919 3.93701
f 116/319/54 115/320/54 120/321/54 119/322/54 

vt -31.4352 -7.25029e-15
v 0.661921 0.1 1.86602
vt -31.4352 3.93701
f 115/320/54 114/323/54 121/324/54 120/321/54 

vt -22.7361 -5.90152e-15
v 0.566196 0.1 1.66688
vt -22.7361 3.93701
f 114/323/54 113/325/54 122/326/54 121/324/54 

vt -110.184 1.5327e-14
vn -0.687849 1.11285e-16 -0.725854
vt -95.5111 1.29695e-14
v 0.295679 0.1 1.92323
vt -95.5111 3.93701
vt -110.184 3.93701
f 113/327/55 112/328/55 123/329/55 122/330/55 

vt -23.2611 -6.08056e-15
vn 0.916347 1.13315e-16 -0.400386
vt -10.2275 -4.00501e-15
v 0.16313 0.1 1.61987
vt -10.2275 3.93701
vt -23.2611 3.93701
f 112/331/56 111/332/56 124/333/56 123/334/56 

vt -70.1449 -7.16475e-15
vn 0.533987 1.83138e-16 -0.845493
vt -52.8057 -5.98109e-15
v -0.209238 0.1 1.3847
vt -52.8057 3.93701
vt -70.1449 3.93701
f 111/335/57 110/336/57 125/337/57 124/338/57 

vt -47.084 -5.5905e-15
v -0.332115 0.1 1.30709
vt -47.084 3.93701
f 110/336/57 109/339/57 126/340/57 125/337/57 

vt -82.8425 1.30572e-14
vn -0.87095 5.90923e-17 -0.491372
vt -51.7392 7.26268e-15
vt -51.7392 3.93701
vt -82.8425 3.93701
f 109/341/58 108/342/58 118/343/58 126/344/58 

vt 70.0665 19.8754
vn -4.00761e-17 1 1.91294e-16
vt 77.2632 0.393701
vt 136.294 0.393701
vt 131.226 10.9367
vt 124.485 24.9597
vt 120.716 32.8
vt 110.066 22.7074
vt 104.848 34.6507
vt 90.1875 43.9096
vt 85.3498 46.9649
f 118/345/59 117/346/59 119/347/59 120/348/59 121/349/59 122/350/59 123/351/59 124/352/59 125/353/59 126/354/59 

g Mesh8 VitreBris_e_1 Model

v -0.189329 4.57113e-16 1.37362
vt -90.9713 44.3458
vn -4.73318e-16 -1 4.03807e-16
v 0.227653 3.8612e-17 0.82599
vt -107.388 65.9059
v 0.570411 -9.63068e-17 0.893632
vt -120.882 63.2428
v 0.716621 -7.5726e-17 1.11598
vt -126.639 54.4891
v 0.697232 3.82471e-17 1.3755
vt -125.875 44.2718
v 0.663748 2.35066e-16 1.82366
vt -124.557 26.6276
v 0.572343 2.01543e-16 1.6335
vt -120.958 34.1141
v 0.3026 4.32438e-16 1.88912
vt -110.339 24.0504
v 0.179 3.76712e-16 1.60624
vt -105.472 35.1874
f 127/355/60 128/356/60 129/357/60 130/358/60 131/359/60 132/360/60 133/361/60 134/362/60 135/363/60 

vt -117.492 7.52544e-15
vn -0.795611 1.31947e-16 -0.605808
vt -90.3931 2.40018e-14
v -0.189329 0.1 1.37362
vt -90.3931 3.93701
v 0.227653 0.1 0.82599
vt -117.492 3.93701
f 128/364/61 127/365/61 136/366/61 137/367/61 

vt 53.2355 6.91369e-14
vn -0.533987 5.94161e-16 0.845493
vt 70.3866 6.59715e-14
v 0.179 0.1 1.60624
vt 70.3866 3.93701
vt 53.2355 3.93701
f 127/368/62 135/369/62 138/370/62 136/371/62 

vt 9.98581 8.07646e-14
vn -0.916347 5.95401e-16 0.400386
vt 22.1395 8.29586e-14
v 0.3026 0.1 1.88912
vt 22.1395 3.93701
vt 9.98581 3.93701
f 135/372/63 134/373/63 139/374/63 138/375/63 

vt 96.6327 1.89224e-14
vn 0.687849 -3.24666e-17 0.725854
vt 111.263 9.8321e-15
v 0.572343 0.1 1.6335
vt 111.263 3.93701
vt 96.6327 3.93701
f 134/376/64 133/377/64 140/378/64 139/379/64 

vt 21.6566 8.2403e-14
vn -0.901282 6.01535e-16 0.433232
vt 29.9631 8.37228e-14
v 0.663748 0.1 1.82366
vt 29.9631 3.93701
vt 21.6566 3.93701
f 133/380/65 132/381/65 141/382/65 140/383/65 

vt 35.8339 6.32686e-14
vn 0.997221 -4.41916e-16 0.0745063
vt 53.5272 5.55198e-14
v 0.697232 0.1 1.3755
vt 53.5272 3.93701
vt 35.8339 3.93701
f 132/384/66 131/385/66 142/386/66 141/387/66 

vt 63.773 5.10327e-14
v 0.716621 0.1 1.11598
vt 63.773 3.93701
f 131/385/66 130/388/66 143/389/66 142/386/66 

vt -24.0519 8.08222e-14
vn 0.835537 -6.1734e-16 -0.549434
vt -13.5751 8.00119e-14
v 0.570411 0.1 0.893632
vt -13.5751 3.93701
vt -24.0519 3.93701
f 130/390/67 129/391/67 144/392/67 143/393/67 

vt -106.35 3.78918e-14
vn 0.193614 -4.87807e-16 -0.981078
vt -92.5956 4.32035e-14
vt -92.5956 3.93701
vt -106.35 3.93701
f 129/394/68 128/395/68 137/396/68 144/397/68 

vt 107.388 65.9059
vn 4.73318e-16 1 -4.03807e-16
vt 90.9713 44.3458
vt 105.472 35.1874
vt 110.339 24.0504
vt 120.958 34.1141
vt 124.557 26.6276
vt 125.875 44.2718
vt 126.639 54.4891
vt 120.882 63.2428
f 137/398/69 136/399/69 138/400/69 139/401/69 140/402/69 141/403/69 142/404/69 143/405/69 144/406/69 

g Mesh9 VitreBris_e_1 Model

v 1.62118 -9.48827e-17 1.05034
vt -162.251 57.0731
vn -2.25026e-16 -1 -8.4788e-17
v 1.88249 -2.04542e-16 1.65017
vt -172.539 33.4577
v 1.51546 -1.10582e-16 1.51608
vt -158.089 38.7369
v 1.67875 -1.68809e-16 1.76943
vt -164.518 28.7625
v 1.09396 -5.11634e-17 1.93394
vt -141.495 22.286
v 0.844827 -1.76918e-17 2.20037
vt -131.686 11.7965
v 0.681106 4.80285e-17 1.85977
vt -125.24 25.206
v 0.716789 8.04935e-17 1.38217
vt -126.645 44.0091
v 1.27032 -1.60731e-17 1.05203
vt -148.438 57.0067
v 1.27032 8.71469e-18 0.759678
vt -148.438 68.5166
v 1.5484 -6.43391e-17 0.883272
vt -159.386 63.6507
f 145/407/70 146/408/70 147/409/70 148/410/70 149/411/70 150/412/70 151/413/70 152/414/70 153/415/70 154/416/70 155/417/70 

vt -38.2358 2.15276e-14
vn 0.916784 -1.72437e-16 -0.399384
vt -12.4769 2.58449e-14
v 1.62118 0.1 1.05034
vt -12.4769 3.93701
v 1.88249 0.1 1.65017
vt -38.2358 3.93701
f 146/418/71 145/419/71 156/420/71 157/421/71 

vt -5.30221 2.70474e-14
v 1.5484 0.1 0.883272
vt -5.30221 3.93701
f 145/419/71 155/422/71 158/423/71 156/420/71 

vt -119.796 -8.23009e-16
vn 0.406149 -1.39141e-17 -0.913807
vt -107.816 2.05313e-15
v 1.27032 0.1 0.759678
vt -107.816 3.93701
vt -119.796 3.93701
f 155/424/72 154/425/72 159/426/72 158/427/72 

vt -68.5166 3.37455e-14
vn -1 2.25026e-16 1.90795e-32
vt -57.0067 3.27696e-14
v 1.27032 0.1 1.05203
vt -57.0067 3.93701
vt -68.5166 3.93701
f 154/428/73 153/429/73 160/430/73 159/431/73 

vt -156.686 4.45974e-15
vn -0.512238 1.88087e-16 -0.858844
vt -131.312 8.26158e-15
v 0.716789 0.1 1.38217
vt -131.312 3.93701
vt -156.686 3.93701
f 153/432/74 152/433/74 161/434/74 160/435/74 

vt -53.3226 3.15506e-14
vn -0.997221 2.30718e-16 -0.0745063
vt -34.4671 3.02725e-14
v 0.681106 0.1 1.85977
vt -34.4671 3.93701
vt -53.3226 3.93701
f 152/436/75 151/437/75 162/438/75 161/439/75 

vt 31.5405 2.2451e-14
vn -0.901282 1.66079e-16 0.433232
vt 46.4186 1.98636e-14
v 0.844827 0.1 2.20037
vt 46.4186 3.93701
vt 31.5405 3.93701
f 151/440/76 150/441/76 163/442/76 162/443/76 

vt 98.5578 1.88922e-14
vn 0.730419 -2.22274e-16 0.682999
vt 112.919 1.75745e-14
v 1.09396 0.1 1.93394
vt 112.919 3.93701
vt 98.5578 3.93701
f 150/444/77 149/445/77 164/446/77 163/447/77 

vt 142.243 3.89477e-16
vn 0.270791 -1.42555e-16 0.962638
vt 166.16 -4.24225e-15
v 1.67875 0.1 1.76943
vt 166.16 3.93701
vt 142.243 3.93701
f 149/448/78 148/449/78 165/450/78 164/451/78 

vt -64.9554 1.5388e-14
vn 0.840526 -1.43205e-16 -0.541771
vt -53.0885 1.76805e-14
v 1.51546 0.1 1.51608
vt -53.0885 3.93701
vt -64.9554 3.93701
f 148/452/79 147/453/79 166/454/79 165/455/79 

vt 135.197 -4.57301e-15
vn -0.343155 -2.42077e-18 0.939279
vt 150.581 -8.27225e-15
vt 150.581 3.93701
vt 135.197 3.93701
f 147/456/80 146/457/80 157/458/80 166/459/80 

vt 172.539 33.4577
vn 2.25026e-16 1 8.4788e-17
vt 162.251 57.0731
vt 159.386 63.6507
vt 148.438 68.5166
vt 148.438 57.0067
vt 126.645 44.0091
vt 125.24 25.206
vt 131.686 11.7965
vt 141.495 22.286
vt 164.518 28.7625
vt 158.089 38.7369
f 157/460/81 156/461/81 158/462/81 159/463/81 160/464/81 161/465/81 162/466/81 163/467/81 164/468/81 165/469/81 166/470/81 

g Mesh10 VitreBris_e_1 Model

v 0.984048 2.11302e-17 2.49
vt -137.167 0.393701
vn -6.25614e-17 -1 1.67104e-16
v 0.854123 -1.59081e-17 2.21971
vt -132.052 11.0351
v 1.10476 -7.63773e-17 1.95168
vt -141.919 21.5876
v 1.71023 -1.42718e-16 1.78135
vt -165.757 28.2931
v 1.56453 -1.71377e-16 1.55531
vt -160.021 37.1927
v 1.89754 -1.7188e-16 1.67697
vt -173.132 32.4029
v 2.06819 -1.72138e-16 1.73931
vt -179.85 29.9484
v 2.49 -2.6323e-16 1.35211
vt -196.457 45.1926
v 2.49 -1.32016e-16 2.13733
vt -196.457 14.2782
v 1.96947 -7.15714e-17 2.30417
vt -175.963 7.70972
v 1.58398 -1.64025e-17 2.49
vt -160.787 0.393701
f 167/471/82 168/472/82 169/473/82 170/474/82 171/475/82 172/476/82 173/477/82 174/478/82 175/479/82 176/480/82 177/481/82 

vt 47.2635 1.53163e-14
vn -0.901282 1.2878e-16 0.433232
vt 59.0704 1.67745e-14
v 0.984048 0.1 2.49
vt 59.0704 3.93701
v 0.854123 0.1 2.21971
vt 47.2635 3.93701
f 168/482/83 167/483/83 178/484/83 179/485/83 

vt 137.167 8.97688e-16
vn 1.04542e-32 1.67104e-16 1
vt 160.787 -5.79979e-16
v 1.58398 0.1 2.49
vt 160.787 3.93701
vt 137.167 3.93701
f 167/486/84 177/487/84 180/488/84 178/489/84 

vt 145.007 -9.21498e-15
vn 0.434237 1.2336e-16 0.900799
vt 161.855 -1.1387e-14
v 1.96947 0.1 2.30417
vt 161.855 3.93701
vt 145.007 3.93701
f 177/490/85 176/491/85 181/492/85 180/493/85 

vt 169.92 -9.31062e-15
vn 0.305222 1.40035e-16 0.952281
vt 191.44 -1.16903e-14
v 2.49 0.1 2.13733
vt 191.44 3.93701
vt 169.92 3.93701
f 176/494/86 175/495/86 182/496/86 181/497/86 

vt 14.2782 7.09313e-15
vn 1 -6.25614e-17 1.04542e-32
vt 45.1926 1.9272e-15
v 2.49 0.1 1.35211
vt 45.1926 3.93701
vt 14.2782 3.93701
f 175/498/87 174/499/87 183/500/87 182/501/87 

vt -175.287 -1.84074e-14
vn -0.676242 -8.07952e-17 -0.736679
vt -152.744 -1.4821e-14
v 2.06819 0.1 1.73931
vt -152.744 3.93701
vt -175.287 3.93701
f 174/502/88 173/503/88 184/504/88 183/505/88 

vt -158.652 9.25376e-15
vn 0.343155 -1.78425e-16 -0.939279
vt -151.5 9.26392e-15
v 1.89754 0.1 1.67697
vt -151.5 3.93701
vt -158.652 3.93701
f 173/506/89 172/507/89 185/508/89 184/509/89 

vt -137.541 9.28374e-15
v 1.56453 0.1 1.55531
vt -137.541 3.93701
f 172/507/89 171/510/89 186/511/89 185/508/89 

vt 55.4332 1.53861e-14
vn -0.840526 1.43116e-16 0.541771
vt 66.0213 1.65144e-14
v 1.71023 0.1 1.78135
vt 66.0213 3.93701
vt 55.4332 3.93701
f 171/512/90 170/513/90 187/514/90 186/515/90 

vt -167.226 -8.15894e-15
vn -0.270791 -1.43919e-16 -0.962638
vt -142.463 -5.54709e-15
v 1.10476 0.1 1.95168
vt -142.463 3.93701
vt -167.226 3.93701
f 170/516/91 169/517/91 188/518/91 187/519/91 

vt -112.699 -9.09203e-15
vn -0.730419 -6.84356e-17 -0.682999
vt -98.2517 -6.71136e-15
vt -98.2517 3.93701
vt -112.699 3.93701
f 169/520/92 168/521/92 179/522/92 188/523/92 

vt 132.052 11.0351
vn 6.25614e-17 1 -1.67104e-16
vt 137.167 0.393701
vt 160.787 0.393701
vt 175.963 7.70972
vt 196.457 14.2782
vt 196.457 45.1926
vt 179.85 29.9484
vt 173.132 32.4029
vt 160.021 37.1927
vt 165.757 28.2931
vt 141.919 21.5876
f 179/524/93 178/525/93 180/526/93 181/527/93 182/528/93 183/529/93 184/530/93 185/531/93 186/532/93 187/533/93 188/534/93 

g Mesh11 VitreBris_e_1 Model

v 2.49 0 2.49
vt -196.457 0.393701
v 1.63004 0 2.49
vt -162.6 0.393701
v 1.9769 0 2.32279
vt -176.256 6.97662
v 2.49 0 2.15834
vt -196.457 13.4513
f 189/535/1 190/536/1 191/537/1 192/538/1 

vt 162.6 0
vt 196.457 0
v 2.49 0.1 2.49
vt 196.457 3.93701
v 1.63004 0.1 2.49
vt 162.6 3.93701
f 190/539/23 189/540/23 193/541/23 194/542/23 

vn 1 0 -0
vt 13.4513 0
v 2.49 0.1 2.15834
vt 13.4513 3.93701
f 189/147/94 192/543/94 195/544/94 193/150/94 

vt -191.188 0
vn -0.305222 0 -0.952281
vt -169.975 0
v 1.9769 0.1 2.32279
vt -169.975 3.93701
vt -191.188 3.93701
f 192/545/95 191/546/95 196/547/95 195/548/95 

vt -161.801 0
vn -0.434237 0 -0.900799
vt -146.641 0
vt -146.641 3.93701
vt -161.801 3.93701
f 191/549/96 190/550/96 194/551/96 196/552/96 

vt 162.6 0.393701
vt 196.457 0.393701
vt 196.457 13.4513
vt 176.256 6.97662
f 194/553/5 193/554/5 195/555/5 196/556/5 

g Mesh12 VitreBris_e_1 Model

v 1.93326 -9.1482e-16 -0.306333
vt -174.538 110.486
vn 8.25802e-16 -1 2.42692e-16
v 2.12923 -7.84377e-16 -0.435657
vt -182.253 115.577
v 2.49 -5.4423e-16 -0.673743
vt -196.457 124.951
v 2.49 -5.91611e-17 1.32496
vt -196.457 46.2615
v 2.06363 -3.16273e-16 1.71635
vt -179.67 30.8523
v 1.90843 -4.58194e-16 1.65965
vt -173.56 33.0846
v 1.64109 -8.27905e-16 1.04596
vt -163.035 57.2455
v 1.77411 -8.0954e-16 0.669018
vt -168.272 72.0859
v 2.08315 -6.80748e-16 0.14813
vt -180.439 92.5933
v 2.00629 -8.00768e-16 -0.0848946
vt -177.413 101.768
f 197/557/97 198/558/97 199/559/97 200/560/97 201/561/97 202/562/97 203/563/97 204/564/97 205/565/97 206/566/97 

vt -215.775 -3.34582e-14
vn -0.550801 -6.57412e-16 -0.834637
vt -206.531 -3.85938e-14
v 1.93326 0.1 -0.306333
vt -206.531 3.93701
v 2.12923 0.1 -0.435657
vt -215.775 3.93701
f 198/567/98 197/568/98 207/569/98 208/570/98 

vt -50.258 -1.77919e-13
vn -0.949682 -7.08234e-16 0.313217
vt -41.078 -1.73429e-13
v 2.00629 0.1 -0.0848946
vt -41.078 3.93701
vt -50.258 3.93701
f 197/571/99 206/572/99 209/573/99 207/574/99 

vt -31.4177 -1.68704e-13
v 2.08315 0.1 0.14813
vt -31.4177 3.93701
f 206/572/99 205/575/99 210/576/99 209/573/99 

vt -171.702 -1.16825e-13
vn -0.860026 -8.34045e-16 -0.51025
vt -147.857 -1.21895e-13
v 1.77411 0.1 0.669018
vt -147.857 3.93701
vt -171.702 3.93701
f 205/577/100 204/578/100 211/579/100 210/580/100 

vt -123.974 -1.4764e-13
vn -0.943007 -8.59498e-16 -0.332774
vt -108.237 -1.48363e-13
v 1.64109 0.1 1.04596
vt -108.237 3.93701
vt -123.974 3.93701
f 204/581/101 203/582/101 212/583/101 211/584/101 

vt 12.6319 -1.4636e-13
vn -0.916784 -6.60154e-16 0.399384
vt 38.9859 -1.31804e-13
v 1.90843 0.1 1.65965
vt 38.9859 3.93701
vt 12.6319 3.93701
f 203/585/102 202/586/102 213/587/102 212/588/102 

vt 151.668 -2.30623e-14
vn -0.343155 -5.54228e-17 0.939279
vt 158.173 -1.74749e-14
v 2.06363 0.1 1.71635
vt 158.173 3.93701
vt 151.668 3.93701
f 202/589/103 201/590/103 214/591/103 213/592/103 

vt 153.223 -8.52696e-14
vn 0.676242 7.37229e-16 0.736679
vt 176.01 -7.51471e-14
v 2.49 0.1 1.32496
vt 176.01 3.93701
vt 153.223 3.93701
f 201/593/104 200/594/104 215/595/104 214/596/104 

vt 46.2615 -1.64564e-13
vn 1 8.25802e-16 -2.00416e-31
vt 124.951 -1.83661e-13
v 2.49 0.1 -0.673743
vt 124.951 3.93701
vt 46.2615 3.93701
f 200/597/105 199/598/105 216/599/105 215/600/105 

vt -232.793 -2.40036e-14
vt -232.793 3.93701
f 199/601/98 198/567/98 208/570/98 216/602/98 

vt 182.253 115.577
vn -8.25802e-16 1 -2.42692e-16
vt 174.538 110.486
vt 177.413 101.768
vt 180.439 92.5933
vt 168.272 72.0859
vt 163.035 57.2455
vt 173.56 33.0846
vt 179.67 30.8523
vt 196.457 46.2615
vt 196.457 124.951
f 208/603/106 207/604/106 209/605/106 210/606/106 211/607/106 212/608/106 213/609/106 214/610/106 215/611/106 216/612/106 

g Mesh13 VitreBris_e_1 Model

v 1.25032 -1.63826e-16 0.728903
vt -147.65 69.7282
vn -3.98338e-16 -1 1.32937e-16
v 1.25032 -1.22381e-16 1.04067
vt -147.65 57.4539
v 0.71861 1.31577e-16 1.3578
vt -126.717 44.9687
v 0.737073 9.13713e-17 1.11068
vt -127.444 54.6977
v 0.597917 1.18671e-16 0.89906
vt -121.965 63.0291
v 0.734106 6.79944e-17 0.925937
vt -127.327 61.971
v 0.540467 1.21163e-16 0.745665
vt -119.703 69.0683
v 0.709056 -7.06682e-18 0.286238
vt -126.341 87.156
v 0.40295 6.51795e-17 -0.0875293
vt -114.289 101.871
v 0.663069 -5.37523e-17 -0.202745
vt -124.53 106.407
v 0.62849 -6.09304e-17 -0.360353
vt -123.169 112.612
v 1.30222 -2.62161e-16 0.144714
vt -149.694 92.7278
v 1.99038 -5.6473e-16 -0.0692942
vt -176.787 101.153
v 2.0613 -5.64394e-16 0.145752
vt -179.579 92.6869
v 1.7559 -3.74311e-16 0.660506
vt -167.555 72.421
v 1.62937 -2.76243e-16 1.01907
vt -162.574 58.3044
v 1.56363 -2.70117e-16 0.868154
vt -159.985 64.2459
f 217/613/107 218/614/107 219/615/107 220/616/107 221/617/107 222/618/107 223/619/107 224/620/107 225/621/107 226/622/107 227/623/107 228/624/107 229/625/107 230/626/107 231/627/107 232/628/107 233/629/107 

vt 57.4539 5.39967e-14
vn 1 -3.98338e-16 5.29539e-32
vt 69.7282 5.2365e-14
v 1.25032 0.1 0.728903
vt 69.7282 3.93701
v 1.25032 0.1 1.04067
vt 57.4539 3.93701
f 218/630/108 217/631/108 234/632/108 235/633/108 

vt 106.604 2.85859e-14
vn -0.406149 2.83263e-16 0.913807
vt 120.102 2.44012e-14
v 1.56363 0.1 0.868154
vt 120.102 3.93701
vt 106.604 3.93701
f 217/634/109 233/635/109 236/636/109 234/637/109 

vt 4.99603 6.14485e-14
vn -0.916784 4.18283e-16 0.399384
vt 11.4768 6.12073e-14
v 1.62937 0.1 1.01907
vt 11.4768 3.93701
vt 4.99603 3.93701
f 233/638/110 232/639/110 237/640/110 236/641/110 

vt 109.082 3.35004e-14
vn 0.943007 -3.31398e-16 0.332774
vt 124.051 2.96394e-14
v 1.7559 0.1 0.660506
vt 124.051 3.93701
vt 109.082 3.93701
f 232/642/111 231/643/111 238/644/111 237/645/111 

vt 147.779 1.47025e-14
vn 0.860026 -2.7475e-16 0.51025
vt 171.343 7.21895e-15
v 2.0613 0.1 0.145752
vt 171.343 3.93701
vt 147.779 3.93701
f 231/646/112 230/647/112 239/648/112 238/649/112 

vt 31.776 6.15873e-14
vn 0.949682 -4.19933e-16 -0.313217
vt 40.691 6.15741e-14
v 1.99038 0.1 -0.0692942
vt 40.691 3.93701
vt 31.776 3.93701
f 230/650/113 229/651/113 240/652/113 239/653/113 

vt -198.85 -2.18521e-14
vn -0.29696 -8.6496e-18 -0.95489
vt -170.478 -9.93993e-15
v 1.30222 0.1 0.144714
vt -170.478 3.93701
vt -198.85 3.93701
f 229/654/114 228/655/114 241/656/114 240/657/114 

vt -64.1543 4.63026e-14
vn 0.599825 -3.453e-16 -0.800131
vt -31.0037 5.4225e-14
v 0.62849 0.1 -0.360353
vt -31.0037 3.93701
vt -64.1543 3.93701
f 228/658/115 227/659/115 242/660/115 241/661/115 

vt -83.6015 5.79153e-14
vn -0.976769 4.17572e-16 0.214297
vt -77.2488 5.81979e-14
v 0.663069 0.1 -0.202745
vt -77.2488 3.93701
vt -83.6015 3.93701
f 227/662/116 226/663/116 243/664/116 242/665/116 

vt -156.954 -3.97994e-15
vn -0.404985 3.97739e-17 -0.914323
vt -145.754 7.02408e-16
v 0.40295 0.1 -0.0875293
vt -145.754 3.93701
vt -156.954 3.93701
f 226/666/117 225/667/117 244/668/117 243/669/117 

vt -6.39901 6.25913e-14
vn -0.773657 3.92407e-16 0.633605
vt 12.6214 5.9747e-14
v 0.709056 0.1 0.286238
vt 12.6214 3.93701
vt -6.39901 3.93701
f 225/670/118 224/671/118 245/672/118 244/673/118 

vt -125.345 2.87911e-14
vn -0.938789 3.2816e-16 -0.344493
vt -106.078 3.38395e-14
v 0.540467 0.1 0.745665
vt -106.078 3.93701
vt -125.345 3.93701
f 224/674/119 223/675/119 246/676/119 245/677/119 

vt 40.5503 5.34851e-14
vn -0.681393 3.68724e-16 0.731917
vt 50.9663 5.13918e-14
v 0.734106 0.1 0.925937
vt 50.9663 3.93701
vt 40.5503 3.93701
f 223/678/120 222/679/120 247/680/120 246/681/120 

vt -112.919 2.04118e-14
vn 0.193614 -2.07545e-16 -0.981078
vt -107.454 2.24069e-14
v 0.597917 0.1 0.89906
vt -107.454 3.93701
vt -112.919 3.93701
f 222/682/121 221/683/121 248/684/121 247/685/121 

vt 14.3486 6.00878e-14
vn -0.835537 4.05867e-16 0.549434
vt 24.32 5.9013e-14
v 0.737073 0.1 1.11068
vt 24.32 3.93701
vt 14.3486 3.93701
f 221/686/122 220/687/122 249/688/122 248/689/122 

vt -64.0411 5.1244e-14
vn -0.997221 3.87327e-16 -0.0745063
vt -54.2849 5.28269e-14
v 0.71861 0.1 1.3578
vt -54.2849 3.93701
vt -64.0411 3.93701
f 220/690/123 219/691/123 250/692/123 249/693/123 

vt 131.865 7.54276e-15
vn 0.512238 -8.98719e-17 0.858844
vt 156.239 -2.45557e-15
vt 156.239 3.93701
vt 131.865 3.93701
f 219/694/124 218/695/124 235/696/124 250/697/124 

vt 147.65 57.4539
vn 3.98338e-16 1 -1.32937e-16
vt 147.65 69.7282
vt 159.985 64.2459
vt 162.574 58.3044
vt 167.555 72.421
vt 179.579 92.6869
vt 176.787 101.153
vt 149.694 92.7278
vt 123.169 112.612
vt 124.53 106.407
vt 114.289 101.871
vt 126.341 87.156
vt 119.703 69.0683
vt 127.327 61.971
vt 121.965 63.0291
vt 127.444 54.6977
vt 126.717 44.9687
f 235/698/125 234/699/125 236/700/125 237/701/125 238/702/125 239/703/125 240/704/125 241/705/125 242/706/125 243/707/125 244/708/125 245/709/125 246/710/125 247/711/125 248/712/125 249/713/125 250/714/125 

g Mesh14 VitreBris_e_1 Model

v -0.0710525 -4.31548e-16 0.122423
vt -95.6279 93.6054
vn 2.70153e-16 -1 4.46221e-16
v 0.38398 -3.98555e-16 -0.0791269
vt -113.543 101.54
v 0.686345 -1.52126e-16 0.290072
vt -125.447 87.005
v 0.517114 7.9428e-18 0.751249
vt -118.784 68.8485
v 0.669071 1.1212e-16 0.892717
vt -124.767 63.2789
v 0.578398 7.96401e-17 0.874823
vt -121.197 63.9834
v 0.219294 -4.89959e-17 0.803954
vt -107.059 66.7735
v -0.206304 8.54388e-17 1.3629
vt -90.303 44.7679
v -0.322276 2.14258e-17 1.28965
vt -85.7372 47.6515
v -0.210134 -3.69742e-17 1.09088
vt -90.1522 55.4771
v -0.32618 -1.15876e-16 0.984317
vt -85.5835 59.6726
v 0.015057 -3.25244e-16 0.308521
vt -99.018 86.2787
f 251/715/126 252/716/126 253/717/126 254/718/126 255/719/126 256/720/126 257/721/126 258/722/126 259/723/126 260/724/126 261/725/126 262/726/126 

vt -144.937 8.55296e-15
vn -0.404985 -5.17398e-16 -0.914323
vt -125.344 7.25404e-15
v -0.0710525 0.1 0.122423
vt -125.344 3.93701
v 0.38398 0.1 -0.0791269
vt -144.937 3.93701
f 252/727/127 251/728/127 263/729/127 264/730/127 

vt -44.7945 -2.42777e-14
vn -0.907554 -5.77947e-17 0.419935
vt -36.7215 -2.00925e-14
v 0.015057 0.1 0.308521
vt -36.7215 3.93701
vt -44.7945 3.93701
f 251/731/128 262/732/128 265/733/128 263/734/128 

vt -121.648 -3.46978e-14
vn -0.892656 -4.42283e-16 -0.450739
vt -91.8429 -2.6455e-14
v -0.32618 0.1 0.984317
vt -91.8429 3.93701
vt -121.648 3.93701
f 262/735/129 261/736/129 266/737/129 265/738/129 

vt 22.6763 1.03007e-14
vn -0.676373 1.45944e-16 0.736559
vt 28.8792 1.34071e-14
v -0.210134 0.1 1.09088
vt 28.8792 3.93701
vt 22.6763 3.93701
f 261/739/130 260/740/130 267/741/130 266/742/130 

vt -92.616 -2.47551e-14
vn -0.87095 -4.5455e-16 -0.491372
vt -83.6309 -2.24559e-14
v -0.322276 0.1 1.28965
vt -83.6309 3.93701
vt -92.616 3.93701
f 260/743/131 259/744/131 268/745/131 267/746/131 

vt 47.0449 2.08998e-14
vn -0.533987 2.33019e-16 0.845493
vt 52.445 2.342e-14
v -0.206304 0.1 1.3629
vt 52.445 3.93701
vt 47.0449 3.93701
f 259/747/132 258/748/132 269/749/132 268/750/132 

vt 90.3241 -1.83397e-14
vn 0.795611 4.85261e-16 0.605808
vt 117.983 -2.36324e-14
v 0.219294 0.1 0.803954
vt 117.983 3.93701
vt 90.3241 3.93701
f 258/751/133 257/752/133 270/753/133 269/754/133 

vt 92.1048 3.13134e-14
vn -0.193614 3.85473e-16 0.981078
vt 106.515 3.63778e-14
v 0.578398 0.1 0.874823
vt 106.515 3.93701
vt 92.1048 3.93701
f 257/755/134 256/756/134 271/757/134 270/758/134 

vt 110.154 3.76566e-14
v 0.669071 0.1 0.892717
vt 110.154 3.93701
f 256/756/134 255/759/134 272/760/134 271/757/134 

vt -48.201 2.31309e-14
vn 0.681393 -1.42517e-16 -0.731917
vt -40.0272 1.90294e-14
v 0.517114 0.1 0.751249
vt -40.0272 3.93701
vt -48.201 3.93701
f 255/761/135 254/762/135 273/763/135 272/764/135 

vt 105.554 -3.54495e-14
vn 0.938789 4.07337e-16 0.344493
vt 124.895 -4.17514e-14
v 0.686345 0.1 0.290072
vt 124.895 3.93701
vt 105.554 3.93701
f 254/765/136 253/766/136 274/767/136 273/768/136 

vt -12.1716 5.22985e-15
vn 0.773657 -7.37226e-17 -0.633605
vt 6.61629 -4.47209e-15
vt 6.61629 3.93701
vt -12.1716 3.93701
f 253/769/137 252/770/137 264/771/137 274/772/137 

vt 113.543 101.54
vn -2.70153e-16 1 -4.46221e-16
vt 95.6279 93.6054
vt 99.018 86.2787
vt 85.5835 59.6726
vt 90.1522 55.4771
vt 85.7372 47.6515
vt 90.303 44.7679
vt 107.059 66.7735
vt 121.197 63.9834
vt 124.767 63.2789
vt 118.784 68.8485
vt 125.447 87.005
f 264/773/138 263/774/138 265/775/138 266/776/138 267/777/138 268/778/138 269/779/138 270/780/138 271/781/138 272/782/138 273/783/138 274/784/138 

g Mesh15 VitreBris_e_1 Model

v 0.603188 -6.78023e-17 -0.382354
vt -122.173 113.479
vn 7.3627e-17 -1 -8.13354e-17
v 0.640033 -7.87489e-17 -0.214416
vt -123.623 106.867
v 0.382842 -1.06951e-16 -0.100497
vt -113.498 102.382
v -0.0794523 -1.57643e-16 0.104269
vt -95.2972 94.3201
v -0.251424 -1.40075e-16 -0.267392
vt -88.5266 108.952
v -0.398494 -1.35818e-16 -0.452871
vt -82.7365 116.255
v 0.0490066 -5.81783e-17 -1.00234
vt -100.355 137.887
v -0.13066 -3.62676e-17 -1.43437
vt -93.2811 154.896
v 0.11939 1.20606e-18 -1.66874
vt -103.126 164.124
v 0.712987 -1.26241e-17 -0.961365
vt -126.496 136.274
v 0.960424 1.72396e-17 -1.10455
vt -136.237 141.911
v 0.960424 -3.30411e-18 -0.851965
vt -136.237 131.967
v 0.563188 -5.59183e-17 -0.564675
vt -120.598 120.656
f 275/785/139 276/786/139 277/787/139 278/788/139 279/789/139 280/790/139 281/791/139 282/792/139 283/793/139 284/794/139 285/795/139 286/796/139 287/797/139 

vt 77.892 -1.59352e-14
vn 0.976769 8.93465e-17 -0.214297
vt 84.661 -1.55042e-14
v 0.603188 0.1 -0.382354
vt 84.661 3.93701
v 0.640033 0.1 -0.214416
vt 77.892 3.93701
f 276/798/140 275/799/140 288/800/140 289/801/140 

vt 92.0097 -1.50364e-14
v 0.563188 0.1 -0.564675
vt 92.0097 3.93701
f 275/799/140 287/802/140 290/803/140 288/800/140 

vt 168.427 -2.81812e-15
vn 0.586024 -2.27584e-17 0.810294
vt 187.728 -7.46699e-16
v 0.960424 0.1 -0.851965
vt 187.728 3.93701
vt 168.427 3.93701
f 287/804/141 286/805/141 291/806/141 290/807/141 

vt 131.967 -1.01608e-14
vn 1 7.3627e-17 5.98848e-33
vt 141.911 -9.35201e-15
v 0.960424 0.1 -1.10455
vt 141.911 3.93701
vt 131.967 3.93701
f 286/808/142 285/809/142 292/810/142 291/811/142 

vt -188.994 -1.15144e-15
vn -0.500849 3.35226e-17 -0.865535
vt -177.739 -2.32718e-15
v 0.712987 0.1 -0.961365
vt -177.739 3.93701
vt -188.994 3.93701
f 285/812/143 284/813/143 293/814/143 292/815/143 

vt 23.0768 -2.05488e-14
vn 0.766025 1.08683e-16 -0.642811
vt 59.4327 -2.00043e-14
v 0.11939 0.1 -1.66874
vt 59.4327 3.93701
vt 23.0768 3.93701
f 284/816/144 283/817/144 294/818/144 293/819/144 

vt -187.48 -3.95045e-16
vn -0.683873 8.99083e-18 -0.729601
vt -173.987 -1.87038e-15
v -0.13066 0.1 -1.43437
vt -173.987 3.93701
vt -187.48 3.93701
f 283/820/145 282/821/145 295/822/145 294/823/145 

vt -107.203 -1.58743e-14
vn -0.923338 -9.92144e-17 0.383988
vt -88.7817 -1.67369e-14
v 0.0490066 0.1 -1.00234
vt -88.7817 3.93701
vt -107.203 3.93701
f 282/824/146 281/825/146 296/826/146 295/827/146 

vt -170.289 -2.23745e-15
vn -0.775383 -5.72649e-18 -0.631491
vt -142.389 -5.29412e-15
v -0.398494 0.1 -0.452871
vt -142.389 3.93701
vt -170.289 3.93701
f 281/828/147 280/829/147 297/830/147 296/831/147 

vt -39.6887 -2.01805e-14
vn -0.783568 -1.08226e-16 0.621307
vt -30.3694 -2.03482e-14
v -0.251424 0.1 -0.267392
vt -30.3694 3.93701
vt -39.6887 3.93701
f 280/832/148 279/833/148 298/834/148 297/835/148 

vt -61.7049 -1.82474e-14
vn -0.907554 -1.00976e-16 0.419935
vt -45.5821 -1.8939e-14
v -0.0794523 0.1 0.104269
vt -45.5821 3.93701
vt -61.7049 3.93701
f 279/836/149 278/837/149 299/838/149 298/839/149 

vt 125.331 -8.32895e-15
vn 0.404985 -4.4549e-17 0.914323
vt 145.237 -6.3332e-15
v 0.382842 0.1 -0.100497
vt 145.237 3.93701
vt 125.331 3.93701
f 278/840/150 277/841/150 300/842/150 299/843/150 

vt 156.311 -5.22289e-15
vt 156.311 3.93701
f 277/841/150 276/844/150 289/845/150 300/842/150 

vt 123.623 106.867
vn -7.3627e-17 1 8.13354e-17
vt 122.173 113.479
vt 120.598 120.656
vt 136.237 131.967
vt 136.237 141.911
vt 126.496 136.274
vt 103.126 164.124
vt 93.2811 154.896
vt 100.355 137.887
vt 82.7365 116.255
vt 88.5266 108.952
vt 95.2972 94.3201
vt 113.498 102.382
f 289/846/151 288/847/151 290/848/151 291/849/151 292/850/151 293/851/151 294/852/151 295/853/151 296/854/151 297/855/151 298/856/151 299/857/151 300/858/151 

g Mesh16 VitreBris_e_1 Model

v 0.980424 1.92228e-16 -1.11612
vt -137.025 142.367
vn -5.76972e-16 -1 -3.71449e-16
v 1.28089 8.34492e-17 -1.28999
vt -148.854 149.212
v 1.3699 8.12533e-17 -1.42233
vt -152.358 154.423
v 1.8473 -2.45056e-16 -1.28539
vt -171.153 149.031
v 2.11191 -7.08707e-16 -0.44819
vt -181.571 116.07
v 1.90947 -6.41531e-16 -0.314599
vt -173.601 110.811
v 1.98411 -7.68658e-16 -0.0882906
vt -176.54 101.901
v 1.30604 -4.55758e-16 0.122582
vt -149.844 93.5991
v 0.621927 1.29455e-16 -0.39027
vt -122.911 113.79
v 0.585533 2.1207e-16 -0.556153
vt -121.478 120.321
v 0.980424 9.03128e-17 -0.841747
vt -137.025 131.565
f 301/859/152 302/860/152 303/861/152 304/862/152 305/863/152 306/864/152 307/865/152 308/866/152 309/867/152 310/868/152 311/869/152 

vt -203.571 -3.00436e-14
vn -0.500849 6.10477e-16 -0.865535
vt -189.904 -2.57609e-14
v 0.980424 0.1 -1.11612
vt -189.904 3.93701
v 1.28089 0.1 -1.28999
vt -203.571 3.93701
f 302/870/153 301/871/153 312/872/153 313/873/153 

vt -142.367 8.66273e-14
vn -1 5.76972e-16 2.14315e-31
vt -131.565 8.26149e-14
v 0.980424 0.1 -0.841747
vt -131.565 3.93701
vt -142.367 3.93701
f 301/874/154 311/875/154 314/876/154 312/877/154 

vt -188.13 -1.32569e-14
vn -0.586024 6.39102e-16 -0.810294
vt -168.944 -8.46335e-15
v 0.585533 0.1 -0.556153
vt -168.944 3.93701
vt -188.13 3.93701
f 311/878/155 310/879/155 315/880/155 314/881/155 

vt -91.4935 7.82535e-14
vn -0.976769 4.83968e-16 0.214297
vt -84.8073 7.50009e-14
v 0.621927 0.1 -0.39027
vt -84.8073 3.93701
vt -91.4935 3.93701
f 310/882/156 309/883/156 316/884/156 315/885/156 

vt 30.0904 1.31497e-14
vn -0.599825 4.88742e-17 0.800131
vt 63.7519 -9.89013e-15
v 1.30604 0.1 0.122582
vt 63.7519 3.93701
vt 30.0904 3.93701
f 309/886/157 308/887/157 317/888/157 316/889/157 

vt 170.88 -4.1551e-14
vn 0.29696 -5.2603e-16 0.95489
vt 198.837 -5.38699e-14
v 1.98411 0.1 -0.0882906
vt 198.837 3.93701
vt 170.88 3.93701
f 308/890/158 307/891/158 318/892/158 317/893/158 

vt 41.4785 5.58731e-14
vn 0.949682 -4.31596e-16 -0.313217
vt 50.8604 6.08781e-14
v 1.90947 0.1 -0.314599
vt 50.8604 3.93701
vt 41.4785 3.93701
f 307/894/159 306/895/159 319/896/159 318/897/159 

vt 205.929 -2.32902e-14
vn 0.550801 -6.27821e-16 0.834637
vt 215.478 -2.5935e-14
v 2.11191 0.1 -0.44819
vt 215.478 3.93701
vt 205.929 3.93701
f 306/898/160 305/899/160 320/900/160 319/901/160 

vt 55.9541 6.32925e-14
vn 0.953508 -4.38204e-16 -0.301369
vt 90.5221 8.15465e-14
v 1.8473 0.1 -1.28539
vt 90.5221 3.93701
vt 55.9541 3.93701
f 305/902/161 304/903/161 321/904/161 320/905/161 

vt -123.427 -4.73492e-14
vn 0.275726 1.97964e-16 -0.961236
vt -103.874 -3.45024e-14
v 1.3699 0.1 -1.42233
vt -103.874 3.93701
vt -123.427 3.93701
f 304/906/162 303/907/162 322/908/162 321/909/162 

vt -213.166 3.08106e-14
vn -0.829792 6.86062e-16 -0.558073
vt -206.886 3.0897e-14
vt -206.886 3.93701
vt -213.166 3.93701
f 303/910/163 302/911/163 313/912/163 322/913/163 

vt 148.854 149.212
vn 5.76972e-16 1 3.71449e-16
vt 137.025 142.367
vt 137.025 131.565
vt 121.478 120.321
vt 122.911 113.79
vt 149.844 93.5991
vt 176.54 101.901
vt 173.601 110.811
vt 181.571 116.07
vt 171.153 149.031
vt 152.358 154.423
f 313/914/164 312/915/164 314/916/164 315/917/164 316/918/164 317/919/164 318/920/164 319/921/164 320/922/164 321/923/164 322/924/164 

g Mesh17 VitreBris_e_1 Model

v 0.71751 -6.56499e-17 -0.987089
vt -126.674 137.287
vn 3.81303e-16 -1 2.27752e-16
v 0.134004 -4.4651e-16 -1.68244
vt -103.701 164.663
v 0.384305 -4.04503e-16 -1.91706
vt -113.555 173.9
v 0.618344 -2.82059e-16 -1.77126
vt -122.769 168.16
v 0.411631 -4.50638e-16 -2.16537
vt -114.631 183.676
v 0.703919 -4.13123e-16 -2.49
vt -126.139 196.457
v 1.41515 -1.41929e-16 -2.49
vt -154.14 196.457
v 1.72543 9.09864e-17 -1.9868
vt -166.355 176.646
v 1.35737 7.52842e-17 -1.43953
vt -151.865 155.1
v 1.26688 7.14237e-17 -1.30498
vt -148.302 149.803
v 0.965415 -3.79435e-18 -1.13054
vt -136.434 142.935
f 323/925/165 324/926/165 325/927/165 326/928/165 327/929/165 328/930/165 329/931/165 330/932/165 331/933/165 332/934/165 333/935/165 

vt -59.476 -4.45726e-14
vn -0.766025 -1.45686e-16 0.642811
vt -23.7381 -2.95781e-14
v 0.71751 0.1 -0.987089
vt -23.7381 3.93701
v 0.134004 0.1 -1.68244
vt -59.476 3.93701
f 324/936/166 323/937/166 334/938/166 335/939/166 

vt 178.4 1.89094e-14
vn 0.500849 3.88102e-16 0.865535
vt 189.677 2.13446e-14
v 0.965415 0.1 -1.13054
vt 189.677 3.93701
vt 178.4 3.93701
f 323/940/167 333/941/167 336/942/167 334/943/167 

vt 203.389 2.4306e-14
v 1.26688 0.1 -1.30498
vt 203.389 3.93701
f 333/941/167 332/944/167 337/945/167 336/942/167 

vt 207.068 -1.46884e-14
vn 0.829792 4.43504e-16 0.558073
vt 213.452 -1.45364e-14
v 1.35737 0.1 -1.43953
vt 213.452 3.93701
vt 207.068 3.93701
f 332/946/168 331/947/168 338/948/168 337/949/168 

vt 239.418 -1.39182e-14
v 1.72543 0.1 -1.9868
vt 239.418 3.93701
f 331/947/168 330/950/168 339/951/168 338/948/168 

vt 63.0476 -4.44584e-14
vn 0.851194 2.05027e-16 -0.524852
vt 86.3221 -5.36282e-14
v 1.41515 0.1 -2.49
vt 86.3221 3.93701
vt 63.0476 3.93701
f 330/952/169 329/953/169 340/954/169 339/955/169 

vt -154.14 3.91556e-14
vn 8.68424e-32 -2.27752e-16 -1
vt -126.139 2.84787e-14
v 0.703919 0.1 -2.49
vt -126.139 3.93701
vt -154.14 3.93701
f 329/956/170 328/957/170 341/958/170 340/959/170 

vt -230.4 1.68715e-16
vn -0.743156 -4.35761e-16 -0.669118
vt -213.202 -1.30827e-15
v 0.411631 0.1 -2.16537
vt -213.202 3.93701
vt -230.4 3.93701
f 328/960/171 327/961/171 342/962/171 341/963/171 

vt -109.414 -6.10647e-14
vn -0.885577 -2.31884e-16 0.464493
vt -91.8929 -5.44278e-14
v 0.618344 0.1 -1.77126
vt -91.8929 3.93701
vt -109.414 3.93701
f 327/964/172 326/965/172 343/966/172 342/967/172 

vt -15.2904 -1.28284e-14
vn 0.528746 8.30135e-18 -0.84878
vt -4.43464 -1.76491e-14
v 0.384305 0.1 -1.91706
vt -4.43464 3.93701
vt -15.2904 3.93701
f 326/968/173 325/969/173 344/970/173 343/971/173 

vt -201.775 5.08818e-15
vn -0.683873 -4.26931e-16 -0.729601
vt -188.269 3.43437e-15
vt -188.269 3.93701
vt -201.775 3.93701
f 325/972/174 324/973/174 335/974/174 344/975/174 

vt 103.701 164.663
vn -3.81303e-16 1 -2.27752e-16
vt 126.674 137.287
vt 136.434 142.935
vt 148.302 149.803
vt 151.865 155.1
vt 166.355 176.646
vt 154.14 196.457
vt 126.139 196.457
vt 114.631 183.676
vt 122.769 168.16
vt 113.555 173.9
f 335/976/175 334/977/175 336/978/175 337/979/175 338/980/175 339/981/175 340/982/175 341/983/175 342/984/175 343/985/175 344/986/175 

g Mesh18 VitreBris_e_1 Model

v -1.00169 -3.17434e-16 -0.574649
vt -58.9886 121.049
vn 2.87734e-17 -1 -8.19216e-18
v -1.12273 -3.19039e-16 -0.803911
vt -54.2233 130.075
v -0.913429 -3.10687e-16 -1.08831
vt -62.4634 141.272
v -1.05041 -3.09955e-16 -1.65877
vt -57.0704 163.731
v -1.16123 -3.12355e-16 -1.75501
vt -52.7074 167.52
v -0.804534 -2.99615e-16 -2.05738
vt -66.7506 179.425
v -0.289658 -2.87271e-16 -1.7558
vt -87.0213 167.551
v 0.173784 -2.71541e-16 -2.0482
vt -105.267 179.063
v 0.366736 -2.66973e-16 -1.928
vt -112.864 174.331
v 0.11342 -2.76207e-16 -1.69056
vt -102.891 164.983
v -0.154448 -2.85972e-16 -1.43948
vt -92.3446 155.098
v 0.025949 -2.84335e-16 -1.0057
vt -99.4468 138.02
v -0.411218 -3.01311e-16 -0.468918
vt -82.2355 116.887
v -0.558531 -3.04027e-16 -0.654703
vt -76.4358 124.201
f 345/987/176 346/988/176 347/989/176 348/990/176 349/991/176 350/992/176 351/993/176 352/994/176 353/995/176 354/996/176 355/997/176 356/998/176 357/999/176 358/1000/176 

vt -89.7127 -1.57416e-14
vn -0.884322 -2.92697e-17 0.466878
vt -79.5059 -1.56785e-14
v -1.00169 0.1 -0.574649
vt -79.5059 3.93701
v -1.12273 0.1 -0.803911
vt -89.7127 3.93701
f 346/1001/177 345/1002/177 359/1003/177 360/1004/177 

vt 79.5678 -1.28175e-14
vn 0.177768 -2.94667e-18 0.984072
vt 97.2973 -1.22897e-14
v -0.558531 0.1 -0.654703
vt 97.2973 3.93701
vt 79.5678 3.93701
f 345/1005/178 358/1006/178 361/1007/178 359/1008/178 

vt -49.8297 -1.57573e-14
vn -0.783568 -2.76358e-17 0.621307
vt -40.495 -1.56504e-14
v -0.411218 0.1 -0.468918
vt -40.495 3.93701
vt -49.8297 3.93701
f 358/1009/179 357/1010/179 362/1011/179 361/1012/179 

vt 142.563 -1.16904e-14
vn 0.775383 1.71372e-17 0.631491
vt 169.818 -1.10221e-14
v 0.025949 0.1 -1.0057
vt 169.818 3.93701
vt 142.563 3.93701
f 357/1013/180 356/1014/180 363/1015/180 362/1016/180 

vt 89.2524 -1.54974e-14
vn 0.923338 2.97133e-17 -0.383988
vt 107.748 -1.55618e-14
v -0.154448 0.1 -1.43948
vt 107.748 3.93701
vt 89.2524 3.93701
f 356/1017/181 355/1018/181 364/1019/181 363/1020/181 

vt 173.442 -1.05736e-14
vn 0.683873 1.37004e-17 0.729601
vt 187.896 -1.01892e-14
v 0.11342 0.1 -1.69056
vt 187.896 3.93701
vt 173.442 3.93701
f 355/1021/182 354/1022/182 365/1023/182 364/1024/182 

vt 201.566 -9.82564e-15
v 0.366736 0.1 -1.928
vt 201.566 3.93701
f 354/1022/182 353/1025/182 366/1026/182 365/1023/182 

vt -3.61972 -1.51137e-14
vn 0.528746 2.21672e-17 -0.84878
vt 5.33024 -1.52935e-14
v 0.173784 0.1 -2.0482
vt 5.33024 3.93701
vt -3.61972 3.93701
f 353/1027/183 352/1028/183 367/1029/183 366/1030/183 

vt -184.576 -9.88792e-15
vn -0.5336 -8.42509e-18 -0.845737
vt -163.002 -1.05072e-14
v -0.289658 0.1 -1.7558
vt -163.002 3.93701
vt -184.576 3.93701
f 352/1031/184 351/1032/184 368/1033/184 367/1034/184 

vt 9.59499 -1.53849e-14
vn 0.505418 2.16114e-17 -0.862874
vt 33.087 -1.58709e-14
v -0.804534 0.1 -2.05738
vt 33.087 3.93701
vt 9.59499 3.93701
f 351/1035/185 350/1036/185 369/1037/185 368/1038/185 

vt -166.939 -1.0638e-14
vn -0.646627 -1.23567e-17 -0.762806
vt -148.529 -1.11396e-14
v -1.16123 0.1 -1.75501
vt -148.529 3.93701
vt -166.939 3.93701
f 350/1039/186 349/1040/186 370/1041/186 369/1042/186 

vt -70.0419 -1.63318e-14
vn -0.655673 -2.50514e-17 0.755045
vt -64.2634 -1.62373e-14
v -1.05041 0.1 -1.65877
vt -64.2634 3.93701
vt -70.0419 3.93701
f 349/1043/187 348/1044/187 371/1045/187 370/1046/187 

vt -145.881 -1.50044e-14
vn -0.97236 -2.98909e-17 0.233486
vt -122.783 -1.50332e-14
v -0.913429 0.1 -1.08831
vt -122.783 3.93701
vt -145.881 3.93701
f 348/1047/188 347/1048/188 372/1049/188 371/1050/188 

vt -150.805 -1.16194e-14
vn -0.805404 -1.83185e-17 -0.592727
vt -136.903 -1.19483e-14
vt -136.903 3.93701
vt -150.805 3.93701
f 347/1051/189 346/1052/189 360/1053/189 372/1054/189 

vt 54.2233 130.075
vn -2.87734e-17 1 8.19216e-18
vt 58.9886 121.049
vt 76.4358 124.201
vt 82.2355 116.887
vt 99.4468 138.02
vt 92.3446 155.098
vt 102.891 164.983
vt 112.864 174.331
vt 105.267 179.063
vt 87.0213 167.551
vt 66.7506 179.425
vt 52.7074 167.52
vt 57.0704 163.731
vt 62.4634 141.272
f 360/1055/190 359/1056/190 361/1057/190 362/1058/190 363/1059/190 364/1060/190 365/1061/190 366/1062/190 367/1063/190 368/1064/190 369/1065/190 370/1066/190 371/1067/190 372/1068/190 

g Mesh19 VitreBris_e_1 Model

v -1.34295 -6.30533e-18 -2.49
vt -45.5532 196.457
vn -2.38135e-16 -1 -1.57402e-16
v 0.677007 -4.87327e-16 -2.49
vt -125.079 196.457
v 0.387453 -4.68994e-16 -2.16841
vt -113.679 183.796
v 0.566442 -5.65331e-16 -1.82716
vt -120.726 170.36
v 0.388359 -5.05461e-16 -1.93809
vt -113.715 174.728
v 0.173716 -4.33301e-16 -2.0718
vt -105.264 179.992
v -0.290044 -3.68919e-16 -1.7792
vt -87.0061 168.473
v -0.806655 -1.98267e-16 -2.0818
vt -66.6671 180.386
v -1.17651 -1.59541e-16 -1.76828
vt -52.1059 168.042
v -1.52662 -2.83109e-17 -2.07231
vt -38.3219 180.012
f 373/1069/191 374/1070/191 375/1071/191 376/1072/191 377/1073/191 378/1074/191 379/1075/191 380/1076/191 381/1077/191 382/1078/191 

vt -125.079 -5.01088e-14
vn 3.74829e-32 1.57402e-16 -1
vt -45.5532 -3.1171e-14
v -1.34295 0.1 -2.49
vt -45.5532 3.93701
v 0.677007 0.1 -2.49
vt -125.079 3.93701
f 374/1079/192 373/1080/192 383/1081/192 384/1082/192 

vt -198.174 -1.07658e-14
vn -0.915402 2.8135e-16 -0.402542
vt -180.21 -1.16322e-14
v -1.52662 0.1 -2.07231
vt -180.21 3.93701
vt -198.174 3.93701
f 373/1083/193 382/1084/193 385/1085/193 383/1086/193 

vt -89.0944 4.89113e-15
vn -0.655673 3.72925e-17 0.755045
vt -70.8386 -2.75402e-16
v -1.17651 0.1 -1.76828
vt -70.8386 3.93701
vt -89.0944 3.93701
f 382/1087/194 381/1088/194 386/1089/194 385/1090/194 

vt 148.407 -3.21765e-14
vn 0.646627 -2.74052e-16 0.762806
vt 167.497 -3.37011e-14
v -0.806655 0.1 -2.0818
vt 167.497 3.93701
vt 148.407 3.93701
f 381/1091/195 380/1092/195 387/1093/195 386/1094/195 

vt -33.645 -1.07332e-14
vn -0.505418 -1.54608e-17 0.862874
vt -10.0738 -1.74518e-14
v -0.290044 0.1 -1.7792
vt -10.0738 3.93701
vt -33.645 3.93701
f 380/1095/196 379/1096/196 388/1097/196 387/1098/196 

vt 163.481 -3.95174e-14
vn 0.5336 -2.6019e-16 0.845737
vt 185.07 -4.20521e-14
v 0.173716 0.1 -2.0718
vt 185.07 3.93701
vt 163.481 3.93701
f 379/1099/197 378/1100/197 389/1101/197 388/1102/197 

vt -5.82388 -1.86614e-14
vn -0.528746 -7.68724e-18 0.84878
vt 4.13217 -2.15023e-14
v 0.388359 0.1 -1.93809
vt 4.13217 3.93701
vt -5.82388 3.93701
f 378/1103/198 377/1104/198 390/1105/198 389/1106/198 

vt 12.3924 -2.38594e-14
v 0.566442 0.1 -1.82716
vt 12.3924 3.93701
f 377/1104/198 376/1107/198 391/1108/198 390/1105/198 

vt 94.7909 3.37487e-15
vn 0.885577 -1.37774e-16 -0.464493
vt 109.962 7.16767e-15
v 0.387453 0.1 -2.16841
vt 109.962 3.93701
vt 94.7909 3.93701
f 376/1109/199 375/1110/199 392/1111/199 391/1112/199 

vt 212.654 -2.93324e-14
vn 0.743156 -2.82292e-16 0.669118
vt 229.691 -3.00542e-14
vt 229.691 3.93701
vt 212.654 3.93701
f 375/1113/200 374/1114/200 384/1115/200 392/1116/200 

vt 125.079 196.457
vn 2.38135e-16 1 1.57402e-16
vt 45.5532 196.457
vt 38.3219 180.012
vt 52.1059 168.042
vt 66.6671 180.386
vt 87.0061 168.473
vt 105.264 179.992
vt 113.715 174.728
vt 120.726 170.36
vt 113.679 183.796
f 384/1117/201 383/1118/201 385/1119/201 386/1120/201 387/1121/201 388/1122/201 389/1123/201 390/1124/201 391/1125/201 392/1126/201 

g Mesh20 VitreBris_e_1 Model

v -1.18315 -1.81774e-16 -1.74755
vt -51.8446 167.226
vn -5.39945e-16 -1 -3.86775e-16
v -1.06836 -2.82304e-16 -1.64787
vt -56.3637 163.302
v -0.935047 -5.69024e-16 -1.09268
vt -61.6123 141.444
v -1.14255 -5.66038e-16 -0.810715
vt -53.4428 130.343
v -1.24478 -5.64567e-16 -0.671812
vt -49.4183 124.875
v -1.92459 -2.26452e-16 -0.596962
vt -22.6537 121.928
v -1.83163 -1.64986e-16 -0.885667
vt -26.3139 133.294
v -2.0906 1.99536e-16 -1.4666
vt -16.1181 156.165
v -1.72041 6.34836e-17 -1.63163
vt -30.6924 162.662
v -1.53505 1.26432e-16 -2.05314
vt -37.99 179.258
f 393/1127/202 394/1128/202 395/1129/202 396/1130/202 397/1131/202 398/1132/202 399/1133/202 400/1134/202 401/1135/202 402/1136/202 

vt 64.5156 -1.17929e-15
vn 0.655673 -6.19946e-17 -0.755045
vt 70.5008 2.77858e-15
v -1.18315 0.1 -1.74755
vt 70.5008 3.93701
v -1.06836 0.1 -1.64787
vt 64.5156 3.93701
f 394/1137/203 393/1138/203 403/1139/203 404/1140/203 

vt 88.8502 1.49127e-14
v -1.53505 0.1 -2.05314
vt 88.8502 3.93701
f 393/1138/203 402/1141/203 405/1142/203 403/1139/203 

vt -179.385 -1.93195e-14
vn -0.915402 6.4996e-16 -0.402542
vt -161.256 -2.17978e-14
v -1.72041 0.1 -1.63163
vt -161.256 3.93701
vt -179.385 3.93701
f 402/1143/204 401/1144/204 406/1145/204 405/1146/204 

vt -94.2634 -7.54846e-14
vn -0.407164 5.7311e-16 -0.913355
vt -78.3065 -7.01282e-14
v -2.0906 0.1 -1.4666
vt -78.3065 3.93701
vt -94.2634 3.93701
f 401/1147/205 400/1148/205 407/1149/205 406/1150/205 

vt -136.072 3.41417e-14
vn -0.913355 3.35681e-16 0.407164
vt -111.031 1.97905e-14
v -1.83163 0.1 -0.885667
vt -111.031 3.93701
vt -136.072 3.93701
f 400/1151/206 399/1152/206 408/1153/206 407/1154/206 

vt -134.944 -1.64952e-14
vn -0.951865 6.32508e-16 -0.306517
vt -123.002 -1.89151e-14
v -1.92459 0.1 -0.596962
vt -123.002 3.93701
vt -134.944 3.93701
f 399/1155/207 398/1156/207 409/1157/207 408/1158/207 

vt 35.8617 -6.15713e-14
vn 0.109442 -4.43545e-16 0.993993
vt 62.7879 -7.48829e-14
v -1.24478 0.1 -0.671812
vt 62.7879 3.93701
vt 35.8617 3.93701
f 398/1159/208 397/1160/208 410/1161/208 409/1162/208 

vt 129.866 -4.495e-14
vn 0.805404 -6.64126e-16 0.592727
vt 136.656 -4.50079e-14
v -1.14255 0.1 -0.810715
vt 136.656 3.93701
vt 129.866 3.93701
f 397/1163/209 396/1164/209 411/1165/209 410/1166/209 

vt 150.439 -4.51255e-14
v -0.935047 0.1 -1.09268
vt 150.439 3.93701
f 396/1164/209 395/1167/209 412/1168/209 411/1165/209 

vt 123.149 1.79975e-14
vn 0.97236 -4.34715e-16 -0.233486
vt 145.628 2.92857e-14
vt 145.628 3.93701
vt 123.149 3.93701
f 395/1169/210 394/1170/210 404/1171/210 412/1172/210 

vt 56.3637 163.302
vn 5.39945e-16 1 3.86775e-16
vt 51.8446 167.226
vt 37.99 179.258
vt 30.6924 162.662
vt 16.1181 156.165
vt 26.3139 133.294
vt 22.6537 121.928
vt 49.4183 124.875
vt 53.4428 130.343
vt 61.6123 141.444
f 404/1173/211 403/1174/211 405/1175/211 406/1176/211 407/1177/211 408/1178/211 409/1179/211 410/1180/211 411/1181/211 412/1182/211 

g Mesh21 VitreBris_e_1 Model

v -2.49 -3.91268e-19 -0.374925
vt -0.393701 113.186
vn 2.06186e-18 -1 -2.45573e-19
v -2.49 9.40578e-21 -2.00652
vt -0.393701 177.422
v -2.308 5.03386e-19 -2.49
vt -7.55888 196.457
v -1.3648 2.44815e-18 -2.49
vt -44.693 196.457
v -1.5479 1.96837e-18 -2.07362
vt -37.4843 180.064
v -1.73561 1.4765e-18 -1.64675
vt -30.094 163.258
v -2.11701 6.48355e-19 -1.47672
vt -15.0783 156.564
v -1.85301 1.04726e-18 -0.884513
vt -25.4721 133.249
v -1.94836 7.77935e-19 -0.588398
vt -21.718 121.59
v -2.03985 5.19536e-19 -0.304295
vt -18.1161 110.405
v -2.24876 1.40541e-19 -0.515021
vt -9.89137 118.702
f 413/1183/212 414/1184/212 415/1185/212 416/1186/212 417/1187/212 418/1188/212 419/1189/212 420/1190/212 421/1191/212 422/1192/212 423/1193/212 

vt -177.422 -4.41452e-19
vn -1 -2.06186e-18 -5.06338e-37
vt -113.186 -1.6216e-17
v -2.49 0.1 -0.374925
vt -113.186 3.93701
v -2.49 0.1 -2.00652
vt -177.422 3.93701
f 414/1194/213 413/1195/213 424/1196/213 425/1197/213 

vt 57.1814 6.49956e-17
vn 0.50219 8.23088e-19 0.864757
vt 68.1644 8.59329e-17
v -2.24876 0.1 -0.515021
vt 68.1644 3.93701
vt 57.1814 3.93701
f 413/1198/214 423/1199/214 426/1200/214 424/1201/214 

vt -77.3333 -1.42784e-16
vn -0.710161 -1.63715e-18 0.70404
vt -65.651 -1.27863e-16
v -2.03985 0.1 -0.304295
vt -65.651 3.93701
vt -77.3333 3.93701
f 423/1202/215 422/1203/215 427/1204/215 426/1205/215 

vt 110.644 5.17783e-17
vn 0.951865 1.88735e-18 0.306517
vt 122.395 6.19515e-17
v -1.94836 0.1 -0.588398
vt 122.395 3.93701
vt 110.644 3.93701
f 422/1206/216 421/1207/216 428/1208/216 427/1209/216 

vt 134.642 7.25548e-17
v -1.85301 0.1 -0.884513
vt 134.642 3.93701
f 421/1207/216 420/1210/216 429/1211/216 428/1208/216 

vt 111.332 -1.12505e-16
vn 0.913355 1.9832e-18 -0.407164
vt 136.859 -1.2821e-16
v -2.11701 0.1 -1.47672
vt 136.859 3.93701
vt 111.332 3.93701
f 420/1212/217 419/1213/217 430/1214/217 429/1215/217 

vt 77.5191 1.09725e-16
vn 0.407164 6.15223e-19 0.913355
vt 93.9593 1.42329e-16
v -1.73561 0.1 -1.64675
vt 93.9593 3.93701
vt 77.5191 3.93701
f 419/1216/218 418/1217/218 431/1218/218 430/1219/218 

vt 161.561 1.264e-16
vn 0.915402 1.78858e-18 0.402542
vt 179.92 1.45765e-16
v -1.5479 0.1 -2.07362
vt 179.92 3.93701
vt 161.561 3.93701
f 418/1220/219 417/1221/219 432/1222/219 431/1223/219 

vt 197.828 1.64654e-16
v -1.3648 0.1 -2.49
vt 197.828 3.93701
f 417/1221/219 416/1224/219 433/1225/219 432/1222/219 

vt -44.693 4.81395e-17
vn -5.06338e-37 2.45573e-19 -1
vt -7.55888 -2.8426e-17
v -2.308 0.1 -2.49
vt -7.55888 3.93701
vt -44.693 3.93701
f 416/1226/220 415/1227/220 434/1228/220 433/1229/220 

vt -186.525 1.34345e-16
vn -0.93589 -1.84316e-18 -0.352293
vt -166.186 1.14897e-16
vt -166.186 3.93701
vt -186.525 3.93701
f 415/1230/221 414/1231/221 425/1232/221 434/1233/221 

vt 0.393701 177.422
vn -2.06186e-18 1 2.45573e-19
vt 0.393701 113.186
vt 9.89137 118.702
vt 18.1161 110.405
vt 21.718 121.59
vt 25.4721 133.249
vt 15.0783 156.564
vt 30.094 163.258
vt 37.4843 180.064
vt 44.693 196.457
vt 7.55888 196.457
f 425/1234/222 424/1235/222 426/1236/222 427/1237/222 428/1238/222 429/1239/222 430/1240/222 431/1241/222 432/1242/222 433/1243/222 434/1244/222 

g Mesh22 VitreBris_e_1 Model

v 2.21156 1.76895e-16 -2.49
vt -185.495 196.457
vn 1.47009e-18 -1 -2.04667e-16
v 2.28637 -2.17528e-17 -1.51888
vt -188.44 158.223
v 2.49 -8.4879e-17 -1.20898
vt -196.457 146.023
v 2.49 -1.8952e-16 -0.697705
vt -196.457 125.894
v 2.12926 -2.38774e-16 -0.459643
vt -182.254 116.521
v 1.86313 -6.68322e-17 -1.30166
vt -171.777 149.672
v 1.38163 -3.92722e-17 -1.43977
vt -152.82 155.109
v 1.74921 7.31297e-17 -1.98633
vt -167.292 176.627
v 1.43865 1.75758e-16 -2.49
vt -155.065 196.457
f 435/1245/223 436/1246/223 437/1247/223 438/1248/223 439/1249/223 440/1250/223 441/1251/223 442/1252/223 443/1253/223 

vt 143.284 -4.2938e-15
vn 0.997047 1.7184e-17 -0.0767989
vt 181.631 3.52697e-15
v 2.21156 0.1 -2.49
vt 181.631 3.93701
v 2.28637 0.1 -1.51888
vt 143.284 3.93701
f 436/1254/224 435/1255/224 444/1256/224 445/1257/224 

vt -185.495 -3.32439e-14
vn -3.0088e-34 2.04667e-16 -1
vt -155.065 -3.32886e-14
v 1.43865 0.1 -2.49
vt -155.065 3.93701
vt -185.495 3.93701
f 435/1258/225 443/1259/225 446/1260/225 444/1261/225 

vt -85.8366 -1.86291e-14
vn -0.851194 -1.08671e-16 0.524852
vt -62.5404 -2.26696e-14
v 1.74921 0.1 -1.98633
vt -62.5404 3.93701
vt -85.8366 3.93701
f 443/1262/226 442/1263/226 447/1264/226 446/1265/226 

vt -239.925 7.42696e-15
vn -0.829792 1.12999e-16 -0.558073
vt -213.993 3.00169e-15
v 1.38163 0.1 -1.43977
vt -213.993 3.93701
vt -239.925 3.93701
f 442/1266/227 441/1267/227 448/1268/227 447/1269/227 

vt 104.129 -3.92456e-14
vn -0.275726 -1.97139e-16 0.961236
vt 123.85 -4.03307e-14
v 1.86313 0.1 -1.30166
vt 123.85 3.93701
vt 104.129 3.93701
f 441/1270/228 440/1271/228 449/1272/228 448/1273/228 

vt -90.9447 -1.58089e-14
vn -0.953508 -6.30822e-17 0.301369
vt -56.1782 -2.25782e-14
v 2.12926 0.1 -0.459643
vt -56.1782 3.93701
vt -90.9447 3.93701
f 440/1274/229 439/1275/229 450/1276/229 449/1277/229 

vt 216.296 -8.86792e-15
vn 0.550801 -1.70013e-16 0.834637
vt 233.312 -6.92879e-15
v 2.49 0.1 -0.697705
vt 233.312 3.93701
vt 216.296 3.93701
f 439/1278/230 438/1279/230 451/1280/230 450/1281/230 

vt 125.894 -7.75023e-15
vn 1 1.47009e-18 3.0088e-34
vt 146.023 -3.6305e-15
v 2.49 0.1 -1.20898
vt 146.023 3.93701
vt 125.894 3.93701
f 438/1282/231 437/1283/231 452/1284/231 451/1285/231 

vt 14.1493 -3.11079e-14
vn 0.835721 1.13622e-16 -0.549154
vt 28.7482 -2.86226e-14
vt 28.7482 3.93701
vt 14.1493 3.93701
f 437/1286/232 436/1287/232 445/1288/232 452/1289/232 

vt 188.44 158.223
vn -1.47009e-18 1 2.04667e-16
vt 185.495 196.457
vt 155.065 196.457
vt 167.292 176.627
vt 152.82 155.109
vt 171.777 149.672
vt 182.254 116.521
vt 196.457 125.894
vt 196.457 146.023
f 445/1290/233 444/1291/233 446/1292/233 447/1293/233 448/1294/233 449/1295/233 450/1296/233 451/1297/233 452/1298/233 

g Mesh23 VitreBris_e_1 Model

v 2.49 0 -1.2454
vt -196.457 147.457
v 2.30591 0 -1.52555
vt -189.209 158.486
v 2.23162 0 -2.49
vt -186.284 196.457
v 2.49 0 -2.49
vt -196.457 196.457
f 453/1299/1 454/1300/1 455/1301/1 456/1302/1 

vt -28.5452 0
vn -0.835721 0 0.549154
vt -15.3476 0
v 2.49 0.1 -1.2454
vt -15.3476 3.93701
v 2.30591 0.1 -1.52555
vt -28.5452 3.93701
f 454/1303/234 453/1304/234 457/1305/234 458/1306/234 

vt 147.457 0
v 2.49 0.1 -2.49
vt 147.457 3.93701
f 453/1307/94 456/540/94 459/541/94 457/1308/94 

vt -196.457 0
vt -186.284 0
v 2.23162 0.1 -2.49
vt -186.284 3.93701
vt -196.457 3.93701
f 456/1309/4 455/1310/4 460/1311/4 459/1312/4 

vt -181.57 0
vn -0.997047 0 0.0767989
vt -143.487 0
vt -143.487 3.93701
vt -181.57 3.93701
f 455/1313/235 454/1314/235 458/1315/235 460/1316/235 

vt 189.209 158.486
vt 196.457 147.457
vt 196.457 196.457
vt 186.284 196.457
f 458/1317/5 457/1318/5 459/1319/5 460/1320/5 

g Mesh24 VitreBris_e_1 Model

v -1.227 -1.55025e-17 1.85005
vt -50.1181 25.5884
vn 2.02792e-16 -1 1.82534e-16
v -1.47357 -1.31733e-16 1.48723
vt -40.4106 39.8729
v -1.75713 -2.122e-16 1.36142
vt -29.247 44.8258
v -1.60261 -2.90257e-16 0.762125
vt -35.3304 68.4203
v -1.7301 -3.5072e-16 0.572527
vt -30.311 75.8848
v -1.23032 -2.79563e-16 0.407108
vt -49.9874 82.3973
v -0.905454 -1.25081e-16 0.892505
vt -62.7774 63.2872
v -0.645323 -1.04108e-16 0.718405
vt -73.0188 70.1415
v -0.345281 7.03099e-18 0.99393
vt -84.8314 59.2941
v -0.235351 4.77503e-17 1.09488
vt -89.1594 55.3198
v -0.34437 6.0914e-17 1.28811
vt -84.8673 47.7122
v -0.729397 1.07405e-16 1.97057
vt -69.7088 20.8438
v -0.864836 1.30156e-17 1.60393
vt -64.3765 35.2783
f 461/1321/236 462/1322/236 463/1323/236 464/1324/236 465/1325/236 466/1326/236 467/1327/236 468/1328/236 469/1329/236 470/1330/236 471/1331/236 472/1332/236 473/1333/236 

vt -10.2643 -8.82272e-15
vn -0.827084 -6.51275e-17 0.562078
vt 7.00653 -4.2467e-15
v -1.227 0.1 1.85005
vt 7.00653 3.93701
v -1.47357 0.1 1.48723
vt -10.2643 3.93701
f 462/1334/237 461/1335/237 474/1336/237 475/1337/237 

vt 55.8346 -2.46676e-15
vn 0.562078 2.64956e-16 0.827084
vt 73.074 -1.344e-15
v -0.864836 0.1 1.60393
vt 73.074 3.93701
vt 55.8346 3.93701
f 461/1338/238 473/1339/238 476/1340/238 474/1341/238 

vt -10.7848 -8.70761e-15
vn -0.938042 -1.26976e-16 0.34652
vt 4.60313 -4.99149e-15
v -0.729397 0.1 1.97057
vt 4.60313 3.93701
vt -10.7848 3.93701
f 473/1342/239 472/1343/239 477/1344/239 476/1345/239 

vt 52.4068 -9.21253e-15
vn 0.87095 2.66314e-16 0.491372
vt 83.2563 -1.10429e-14
v -0.34437 0.1 1.28811
vt 83.2563 3.93701
vt 52.4068 3.93701
f 472/1346/240 471/1347/240 478/1348/240 477/1349/240 

vt 91.9912 -1.15612e-14
v -0.235351 0.1 1.09488
vt 91.9912 3.93701
f 471/1347/240 470/1350/240 479/1351/240 478/1348/240 

vt -28.2543 1.60549e-15
vn 0.676373 2.71586e-18 -0.736559
vt -22.3784 2.36961e-18
v -0.345281 0.1 0.99393
vt -22.3784 3.93701
vt -28.2543 3.93701
f 470/1352/241 469/1353/241 480/1354/241 479/1355/241 

vt -6.34078 -4.37317e-15
v -0.645323 0.1 0.718405
vt -6.34078 3.93701
f 469/1353/241 468/1356/241 481/1357/241 480/1354/241 

vt -99.6949 5.76832e-16
vn -0.556201 -2.64488e-16 -0.831047
vt -87.3714 -2.4889e-16
v -0.905454 0.1 0.892505
vt -87.3714 3.93701
vt -99.6949 3.93701
f 468/1358/242 467/1359/242 482/1360/242 481/1361/242 

vt 17.6778 -1.07787e-14
vn 0.831047 6.7004e-17 -0.556201
vt 40.673 -1.68607e-14
v -1.23032 0.1 0.407108
vt 40.673 3.93701
vt 17.6778 3.93701
f 467/1362/243 466/1363/243 483/1364/243 482/1365/243 

vt -73.3464 3.81074e-15
vn -0.314219 -2.3701e-16 -0.94935
vt -52.6203 1.00929e-15
v -1.7301 0.1 0.572527
vt -52.6203 3.93701
vt -73.3464 3.93701
f 466/1366/244 465/1367/244 484/1368/244 483/1369/244 

vt -46.0583 -1.82917e-14
vn -0.829837 -6.64293e-17 0.558005
vt -37.0632 -1.59113e-14
v -1.60261 0.1 0.762125
vt -37.0632 3.93701
vt -46.0583 3.93701
f 465/1370/245 464/1371/245 485/1372/245 484/1373/245 

vt -75.0743 -1.55718e-14
vn -0.968332 -2.41943e-16 -0.249665
vt -50.7082 -1.24986e-14
v -1.75713 0.1 1.36142
vt -50.7082 3.93701
vt -75.0743 3.93701
f 464/1374/246 463/1375/246 486/1376/246 485/1377/246 

vt 8.55486 -3.88405e-15
vn -0.405549 8.46077e-17 0.914073
vt 20.7678 -7.16089e-16
vt 20.7678 3.93701
vt 8.55486 3.93701
f 463/1378/247 462/1379/247 475/1380/247 486/1381/247 

vt 40.4106 39.8729
vn -2.02792e-16 1 -1.82534e-16
vt 50.1181 25.5884
vt 64.3765 35.2783
vt 69.7088 20.8438
vt 84.8673 47.7122
vt 89.1594 55.3198
vt 84.8314 59.2941
vt 73.0188 70.1415
vt 62.7774 63.2872
vt 49.9874 82.3973
vt 30.311 75.8848
vt 35.3304 68.4203
vt 29.247 44.8258
f 475/1382/248 474/1383/248 476/1384/248 477/1385/248 478/1386/248 479/1387/248 480/1388/248 481/1389/248 482/1390/248 483/1391/248 484/1392/248 485/1393/248 486/1394/248 

g Mesh25 Vitre1 Model

v -2.5 0 2.5
v 2.5 0 2.5
vt 196.85 0
v 2.5 0.1 2.5
vt 196.85 3.93701
v -2.5 0.1 2.5
f 487/13/23 488/1395/23 489/1396/23 490/14/23 

v 2.5 0 -2.5
vt -196.85 196.85
f 487/13/1 2/2/1 491/1397/1 488/4/1 

v -2.5 0.1 -2.5
f 2/4/2 487/13/2 490/14/2 492/7/2 

v 2.5 0.1 -2.5
vt 196.85 196.85
f 492/2/5 490/13/5 489/1395/5 493/1398/5 

f 488/13/94 491/1395/94 493/1396/94 489/14/94 

f 491/4/4 2/13/4 492/14/4 493/7/4 

